<?xml version="1.0" encoding="utf-8"?>
<!-- Generator: Adobe Illustrator 16.0.0, SVG Export Plug-In . SVG Version: 6.00 Build 0)  -->
<!DOCTYPE svg PUBLIC "-//W3C//DTD SVG 1.1//EN" "http://www.w3.org/Graphics/SVG/1.1/DTD/svg11.dtd">
<svg version="1.1" id="Layer_1" xmlns="http://www.w3.org/2000/svg" xmlns:xlink="http://www.w3.org/1999/xlink" x="0px" y="0px"
	 width="114.656px" height="55.459px" viewBox="0 0 114.656 55.459" enable-background="new 0 0 114.656 55.459"
	 xml:space="preserve">
<g>
	<path fill="#6D6E71" d="M4.842,55.315h-1.73v-9.097H0v-1.484h7.954v1.484H4.842V55.315z"/>
	<path fill="#6D6E71" d="M18.69,55.315h-1.737v-4.77h-4.878v4.77h-1.729V44.734h1.729v4.328h4.878v-4.328h1.737V55.315z"/>
	<path fill="#6D6E71" d="M28.232,55.315h-5.985V44.734h5.985v1.462h-4.255v2.88h3.988v1.448h-3.988v3.322h4.255V55.315z"/>
	<path fill="#6D6E71" d="M35.864,55.315l-3.068-8.837h-0.058c0.082,1.312,0.123,2.543,0.123,3.691v5.146h-1.57V44.734h2.439
		l2.938,8.417h0.043l3.025-8.417h2.446v10.581h-1.665v-5.232c0-0.526,0.013-1.211,0.04-2.056s0.049-1.355,0.069-1.534h-0.058
		l-3.177,8.822H35.864z"/>
	<path fill="#6D6E71" d="M51.725,55.315H45.74V44.734h5.985v1.462h-4.255v2.88h3.988v1.448h-3.988v3.322h4.255V55.315z"/>
	<path fill="#6D6E71" d="M68.008,49.923c0,1.747-0.485,3.082-1.455,4.006c-0.97,0.924-2.367,1.386-4.19,1.386h-2.96V44.734h3.271
		c1.684,0,2.994,0.454,3.93,1.361S68.008,48.278,68.008,49.923z M66.185,49.981c0-2.533-1.185-3.799-3.554-3.799h-1.498v7.679h1.23
		C64.911,53.86,66.185,52.567,66.185,49.981z"/>
	<path fill="#6D6E71" d="M77.037,55.315h-5.985V44.734h5.985v1.462h-4.255v2.88h3.988v1.448h-3.988v3.322h4.255V55.315z"/>
	<path fill="#6D6E71" d="M86.196,52.442c0,0.941-0.34,1.679-1.021,2.214c-0.681,0.536-1.619,0.803-2.815,0.803
		c-1.197,0-2.176-0.186-2.938-0.557v-1.636c0.482,0.227,0.995,0.405,1.538,0.536c0.542,0.13,1.048,0.195,1.516,0.195
		c0.685,0,1.19-0.13,1.516-0.391s0.489-0.61,0.489-1.049c0-0.396-0.15-0.731-0.449-1.006c-0.299-0.275-0.917-0.601-1.853-0.977
		c-0.965-0.391-1.645-0.837-2.041-1.339c-0.396-0.501-0.594-1.104-0.594-1.809c0-0.883,0.313-1.578,0.941-2.084
		c0.627-0.506,1.469-0.76,2.526-0.76c1.013,0,2.021,0.222,3.025,0.666l-0.55,1.412c-0.941-0.396-1.78-0.594-2.519-0.594
		c-0.56,0-0.984,0.122-1.274,0.366s-0.434,0.566-0.434,0.966c0,0.275,0.058,0.51,0.174,0.706s0.306,0.38,0.572,0.554
		c0.265,0.173,0.743,0.403,1.433,0.688c0.777,0.323,1.346,0.625,1.708,0.905s0.627,0.596,0.796,0.948
		C86.111,51.549,86.196,51.964,86.196,52.442z"/>
	<path fill="#6D6E71" d="M89.015,55.315V44.734h1.729v10.581H89.015z"/>
	<path fill="#6D6E71" d="M98.636,49.576h3.894v5.312c-0.637,0.208-1.248,0.355-1.834,0.442s-1.22,0.13-1.9,0.13
		c-1.602,0-2.837-0.474-3.706-1.422c-0.868-0.948-1.303-2.286-1.303-4.013c0-1.703,0.49-3.036,1.469-3.999s2.328-1.444,4.046-1.444
		c1.104,0,2.152,0.212,3.141,0.637l-0.608,1.44c-0.859-0.396-1.717-0.594-2.576-0.594c-1.129,0-2.022,0.355-2.678,1.064
		c-0.656,0.709-0.984,1.679-0.984,2.91c0,1.293,0.295,2.276,0.887,2.949c0.591,0.673,1.441,1.009,2.551,1.009
		c0.56,0,1.158-0.07,1.795-0.209V51.06h-2.193V49.576z"/>
	<path fill="#6D6E71" d="M114.656,55.315h-2.121l-5.204-8.432h-0.058l0.036,0.471c0.068,0.897,0.102,1.718,0.102,2.46v5.5h-1.57
		V44.734h2.099l5.189,8.388h0.043c-0.01-0.111-0.029-0.515-0.058-1.212c-0.029-0.697-0.043-1.241-0.043-1.632v-5.544h1.585V55.315z"
		/>
</g>
<g>
	<path fill="#6D6E71" d="M21.874,35.5l0.661,2.091c0.11,0.275,0,0.44-0.275,0.44h-5.008c-0.33,0-0.44-0.165-0.33-0.44l0.385-1.101
		l-0.771-7.98h-2.917l-0.771,7.98l0.331,1.101c0.11,0.275,0,0.44-0.275,0.44H7.839c-0.275,0-0.385-0.165-0.275-0.44L8.225,35.5
		l4.293-34.179L12.242,0.44c-0.11-0.275,0-0.44,0.275-0.44h5.063c0.275,0,0.385,0.165,0.275,0.44l-0.275,0.881L21.874,35.5z
		 M14.059,23.722h1.981l-0.991-10.127L14.059,23.722z"/>
	<path fill="#6D6E71" d="M32.44,36.271l0.44,1.321c0.11,0.275,0,0.44-0.275,0.44h-5.063c-0.275,0-0.385-0.165-0.275-0.44l0.44-1.321
		V1.816l-0.44-1.376c-0.11-0.275,0-0.44,0.275-0.44h4.568c0.22,0,0.33,0.11,0.385,0.331l4.733,20.419V1.816l-0.44-1.376
		c-0.11-0.275,0-0.44,0.275-0.44h5.063c0.275,0,0.385,0.165,0.275,0.44l-0.44,1.376v34.454l0.44,1.321c0.11,0.275,0,0.44-0.275,0.44
		h-4.568c-0.22,0-0.33-0.11-0.385-0.33L32.44,17.282V36.271z"/>
	<path fill="#6D6E71" d="M53.409,36.271l0.44,1.321c0.11,0.275,0,0.44-0.275,0.44H48.51c-0.275,0-0.385-0.165-0.275-0.44l0.44-1.321
		V1.816l-0.44-1.376c-0.11-0.275,0-0.44,0.275-0.44h5.063c0.275,0,0.385,0.165,0.275,0.44l-0.44,1.376V36.271z"/>
	<path fill="#6D6E71" d="M71.846,0c0.275,0,0.385,0.11,0.44,0.385l0.496,4.018c0.055,0.22-0.11,0.385-0.331,0.385h-4.348v31.482
		l0.44,1.321c0.11,0.275,0,0.44-0.275,0.44h-5.063c-0.275,0-0.385-0.165-0.275-0.44l0.44-1.321V4.789h-4.403
		c-0.22,0-0.385-0.165-0.33-0.385l0.496-4.018C59.187,0.11,59.297,0,59.572,0H71.846z"/>
	<path fill="#6D6E71" d="M86.54,20.419v15.796l0.44,1.376c0.11,0.275,0,0.44-0.275,0.44h-5.063c-0.275,0-0.385-0.165-0.275-0.44
		l0.44-1.376V20.199L77.404,1.541l-0.771-1.045C76.468,0.22,76.578,0,76.853,0h5.669c0.275,0,0.385,0.165,0.275,0.44l-0.22,0.771
		l1.596,9.962l1.596-9.962L85.494,0.44c-0.11-0.275,0-0.44,0.331-0.44h5.614c0.33,0,0.44,0.22,0.275,0.496l-0.771,0.991
		L86.54,20.419z"/>
	<path fill="#6D6E71" d="M107.62,35.5l0.661,2.091c0.11,0.275,0,0.44-0.275,0.44h-5.008c-0.33,0-0.44-0.165-0.33-0.44l0.385-1.101
		l-0.771-7.98h-2.917l-0.771,7.98l0.331,1.101c0.11,0.275,0,0.44-0.275,0.44h-5.063c-0.275,0-0.385-0.165-0.275-0.44L93.97,35.5
		l4.293-34.179L97.988,0.44c-0.11-0.275,0-0.44,0.275-0.44h5.063c0.275,0,0.385,0.165,0.275,0.44l-0.275,0.881L107.62,35.5z
		 M99.804,23.722h1.981l-0.991-10.127L99.804,23.722z"/>
</g>
</svg>
