<?xml version="1.0" encoding="utf-8"?>
<!-- Generator: Adobe Illustrator 18.1.1, SVG Export Plug-In . SVG Version: 6.00 Build 0)  -->
<svg version="1.1" id="Icons" xmlns="http://www.w3.org/2000/svg" xmlns:xlink="http://www.w3.org/1999/xlink" x="0px" y="0px"
	 viewBox="0 0 144 144" enable-background="new 0 0 144 144" xml:space="preserve">
<g id="Travel_Planning">
</g>
<g id="Globe_1_">
</g>
<g id="Map">
</g>
<g id="Flight_Date">
</g>
<g id="Alarm_Clock">
</g>
<g id="Small_Suitcase">
</g>
<g id="Backpack">
</g>
<g id="Large_Suitcase">
</g>
<g id="Toiletries">
</g>
<g id="Camera">
</g>
<g id="Phone">
</g>
<g id="Laptop">
</g>
<g id="Passport">
</g>
<g id="Taxi">
</g>
<g id="Signs">
</g>
<g id="Airport">
</g>
<g id="Wind_Sock">
</g>
<g id="Check-In">
</g>
<g id="Ticket">
</g>
<g id="Wallet">
</g>
<g id="Tag">
</g>
<g id="Escalator">
</g>
<g id="Body_Scanner">
	<g id="XMLID_511_">
		<path id="XMLID_516_" opacity="0.1" d="M101.5,17L101.5,17h-60h0c-3.3,0-6,2.7-6,6v8v96h8V33h56v94h8V31v-8
			C107.5,19.7,104.8,17,101.5,17z"/>
		
			<path id="XMLID_850_" fill="none" stroke="#000000" stroke-width="4" stroke-linecap="round" stroke-linejoin="round" stroke-miterlimit="10" d="
			M101.5,17L101.5,17h-60h0c-3.3,0-6,2.7-6,6v8v96h8V33h56v94h8V31v-8C107.5,19.7,104.8,17,101.5,17z"/>
		
			<circle id="XMLID_930_" fill="none" stroke="#000000" stroke-width="4" stroke-linecap="round" stroke-linejoin="round" stroke-miterlimit="10" cx="71.5" cy="54" r="9"/>
		
			<path id="XMLID_927_" fill="none" stroke="#000000" stroke-width="4" stroke-linecap="round" stroke-linejoin="round" stroke-miterlimit="10" d="
			M62.5,81v14.5c0,1.933-1.567,3.5-3.5,3.5h0c-1.933,0-3.5-1.567-3.5-3.5V77v-1c0-3.976,7.163-7,16-7s16,3.024,16,7v1v18.5
			c0,1.933-1.567,3.5-3.5,3.5l0,0c-1.933,0-3.5-1.567-3.5-3.5V81"/>
		
			<path id="XMLID_929_" fill="none" stroke="#000000" stroke-width="4" stroke-linecap="round" stroke-linejoin="round" stroke-miterlimit="10" d="
			M71.5,105v17.5c0,2.475-2.025,4.5-4.5,4.5h0c-2.475,0-4.5-2.025-4.5-4.5V96"/>
		
			<path id="XMLID_925_" fill="none" stroke="#000000" stroke-width="4" stroke-linecap="round" stroke-linejoin="round" stroke-miterlimit="10" d="
			M71.5,105v17.5c0,2.475,2.025,4.5,4.5,4.5h0c2.475,0,4.5-2.025,4.5-4.5V96"/>
		
			<line id="XMLID_931_" fill="none" stroke="#000000" stroke-width="4" stroke-linecap="round" stroke-linejoin="round" stroke-miterlimit="10" x1="27" y1="72" x2="16" y2="72"/>
		
			<line id="XMLID_926_" fill="none" stroke="#000000" stroke-width="4" stroke-linecap="round" stroke-linejoin="round" stroke-miterlimit="10" x1="27.5" y1="82" x2="18.5" y2="87"/>
		
			<line id="XMLID_933_" fill="none" stroke="#000000" stroke-width="4" stroke-linecap="round" stroke-linejoin="round" stroke-miterlimit="10" x1="27.5" y1="62" x2="18.5" y2="57"/>
		
			<line id="XMLID_939_" fill="none" stroke="#000000" stroke-width="4" stroke-linecap="round" stroke-linejoin="round" stroke-miterlimit="10" x1="115" y1="72" x2="126" y2="72"/>
		
			<line id="XMLID_938_" fill="none" stroke="#000000" stroke-width="4" stroke-linecap="round" stroke-linejoin="round" stroke-miterlimit="10" x1="115.5" y1="82" x2="124.5" y2="87"/>
		
			<line id="XMLID_937_" fill="none" stroke="#000000" stroke-width="4" stroke-linecap="round" stroke-linejoin="round" stroke-miterlimit="10" x1="115.5" y1="62" x2="124.5" y2="57"/>
		
			<line id="XMLID_941_" fill="none" stroke="#000000" stroke-width="4" stroke-linecap="round" stroke-linejoin="round" stroke-miterlimit="10" x1="69" y1="25" x2="73" y2="25"/>
		
			<line id="XMLID_479_" fill="none" stroke="#000000" stroke-width="4" stroke-linecap="round" stroke-linejoin="round" stroke-miterlimit="10" x1="55" y1="25" x2="59" y2="25"/>
		
			<line id="XMLID_514_" fill="none" stroke="#000000" stroke-width="4" stroke-linecap="round" stroke-linejoin="round" stroke-miterlimit="10" x1="83" y1="25" x2="87" y2="25"/>
		
			<line id="XMLID_524_" fill="none" stroke="#000000" stroke-width="4" stroke-linecap="round" stroke-linejoin="round" stroke-miterlimit="10" x1="16" y1="127" x2="127" y2="127"/>
	</g>
</g>
<g id="Walking_with_Suitcase">
</g>
<g id="Gate_Number">
</g>
<g id="Seats">
</g>
<g id="Seat_Belt">
</g>
<g id="Take_Off">
</g>
<g id="Plane_Window">
</g>
<g id="International_Travel">
</g>
<g id="Meal">
</g>
<g id="Landing">
</g>
<g id="Shuttle_Bus">
</g>
<g id="Hotel">
</g>
<g id="Hotel_Check-In">
</g>
<g id="Valet_1_">
</g>
<g id="Baggage_Trolley">
</g>
<g id="Door_Hanger">
</g>
<g id="Hotel_Room">
</g>
<g id="Shower">
</g>
</svg>
