<?xml version="1.0" encoding="utf-8"?>
<!-- Generator: Adobe Illustrator 18.1.1, SVG Export Plug-In . SVG Version: 6.00 Build 0)  -->
<svg version="1.1" id="Icons" xmlns="http://www.w3.org/2000/svg" xmlns:xlink="http://www.w3.org/1999/xlink" x="0px" y="0px"
	 viewBox="0 0 144 144" enable-background="new 0 0 144 144" xml:space="preserve">
<g id="Travel_Planning">
</g>
<g id="Globe_1_">
</g>
<g id="Map">
</g>
<g id="Flight_Date">
</g>
<g id="Alarm_Clock">
</g>
<g id="Small_Suitcase">
</g>
<g id="Backpack">
</g>
<g id="Large_Suitcase">
</g>
<g id="Toiletries">
</g>
<g id="Camera">
</g>
<g id="Phone">
	<g id="XMLID_664_">
		<rect id="XMLID_533_" x="18" y="32" opacity="0.1" width="40" height="74"/>
		<path id="XMLID_631_" opacity="0.1" d="M95,58v2c0,3.3,2.7,6,6,6h20c3.3,0,6-2.7,6-6v-2H95z"/>
		
			<path id="XMLID_388_" fill="none" stroke="#ffffff" stroke-width="4" stroke-linecap="round" stroke-linejoin="round" stroke-miterlimit="10" d="
			M60,120H16c-3.3,0-6-2.7-6-6V30c0-3.3,2.7-6,6-6h44c3.3,0,6,2.7,6,6v84C66,117.3,63.3,120,60,120z"/>
		
			<path id="XMLID_424_" fill="none" stroke="#ffffff" stroke-width="4" stroke-linecap="round" stroke-linejoin="round" stroke-miterlimit="10" d="
			M121,66h-20c-3.3,0-6-2.7-6-6V40c0-3.3,2.7-6,6-6h20c3.3,0,6,2.7,6,6v20C127,63.3,124.3,66,121,66z"/>
		
			<rect id="XMLID_412_" x="18" y="32" fill="none" stroke="#ffffff" stroke-width="4" stroke-linecap="round" stroke-linejoin="round" stroke-miterlimit="10" width="40" height="74"/>
		<circle id="XMLID_416_" cx="38" cy="113" r="3"/>
		
			<line id="XMLID_426_" fill="none" stroke="#ffffff" stroke-width="4" stroke-linecap="round" stroke-linejoin="round" stroke-miterlimit="10" x1="134" y1="40" x2="127" y2="40"/>
		
			<line id="XMLID_425_" fill="none" stroke="#ffffff" stroke-width="4" stroke-linecap="round" stroke-linejoin="round" stroke-miterlimit="10" x1="134" y1="46" x2="127" y2="46"/>
		
			<line id="XMLID_464_" fill="none" stroke="#ffffff" stroke-width="4" stroke-linecap="round" stroke-linejoin="round" stroke-miterlimit="10" x1="127" y1="58" x2="95" y2="58"/>
		
			<path id="XMLID_465_" fill="none" stroke="#ffffff" stroke-width="4" stroke-linecap="round" stroke-linejoin="round" stroke-miterlimit="10" d="
			M94.999,46.726C80,45,71,67.667,89,86c19.645,20.008-10.833,30.167-23,12"/>
		<polygon id="XMLID_440_" points="24,69 40,63 40,69 52,69 36,74 36,69 		"/>
	</g>
</g>
<g id="Laptop">
</g>
<g id="Passport">
</g>
<g id="Taxi">
</g>
<g id="Signs">
</g>
<g id="Airport">
</g>
<g id="Wind_Sock">
</g>
<g id="Check-In">
</g>
<g id="Ticket">
</g>
<g id="Wallet">
</g>
<g id="Tag">
</g>
<g id="Escalator">
</g>
<g id="Body_Scanner">
</g>
<g id="Walking_with_Suitcase">
</g>
<g id="Gate_Number">
</g>
<g id="Seats">
</g>
<g id="Seat_Belt">
</g>
<g id="Take_Off">
</g>
<g id="Plane_Window">
</g>
<g id="International_Travel">
</g>
<g id="Meal">
</g>
<g id="Landing">
</g>
<g id="Shuttle_Bus">
</g>
<g id="Hotel">
</g>
<g id="Hotel_Check-In">
</g>
<g id="Valet_1_">
</g>
<g id="Baggage_Trolley">
</g>
<g id="Door_Hanger">
</g>
<g id="Hotel_Room">
</g>
<g id="Shower">
</g>
</svg>
