<?xml version="1.0" encoding="utf-8"?>
<!-- Generator: Adobe Illustrator 18.1.1, SVG Export Plug-In . SVG Version: 6.00 Build 0)  -->
<svg version="1.1" id="Icons" xmlns="http://www.w3.org/2000/svg" xmlns:xlink="http://www.w3.org/1999/xlink" x="0px" y="0px"
	 viewBox="0 0 144 144" enable-background="new 0 0 144 144" xml:space="preserve">
<g id="Travel_Planning">
</g>
<g id="Globe_1_">
</g>
<g id="Map">
</g>
<g id="Flight_Date">
</g>
<g id="Alarm_Clock">
</g>
<g id="Small_Suitcase">
</g>
<g id="Backpack">
</g>
<g id="Large_Suitcase">
</g>
<g id="Toiletries">
</g>
<g id="Camera">
</g>
<g id="Phone">
</g>
<g id="Laptop">
</g>
<g id="Passport">
</g>
<g id="Taxi">
</g>
<g id="Signs">
</g>
<g id="Airport">
</g>
<g id="Wind_Sock">
</g>
<g id="Check-In">
</g>
<g id="Ticket">
</g>
<g id="Wallet">
</g>
<g id="Tag">
</g>
<g id="Escalator">
</g>
<g id="Body_Scanner">
</g>
<g id="Walking_with_Suitcase">
</g>
<g id="Gate_Number">
</g>
<g id="Seats">
</g>
<g id="Seat_Belt">
</g>
<g id="Take_Off">
</g>
<g id="Plane_Window">
	<g id="XMLID_1158_">
		<path id="XMLID_1167_" opacity="0.1" d="M75,10h-6c-24.75,0-45,20.25-45,45v34c0,24.75,20.25,45,45,45h6c24.75,0,45-20.25,45-45
			V55C120,30.25,99.75,10,75,10z M110,89c0,19.299-15.701,35-35,35h-6c-19.299,0-35-15.701-35-35V55c0-19.299,15.701-35,35-35h6
			c19.299,0,35,15.701,35,35V89z"/>
		
			<line id="XMLID_1166_" fill="none" stroke="#ffffff" stroke-width="4" stroke-linecap="round" stroke-linejoin="round" stroke-miterlimit="10" x1="35" y1="52" x2="109" y2="52"/>
		
			<line id="XMLID_1165_" fill="none" stroke="#ffffff" stroke-width="4" stroke-linecap="round" stroke-linejoin="round" stroke-miterlimit="10" x1="62" y1="42" x2="82" y2="42"/>
		<g id="XMLID_1164_">
			<path id="XMLID_22_" d="M107.256,80c0.098,0,0.371,0.027,0.744,0.07V89c0,8.938-3.577,17.052-9.368,23H83.718
				c-4.815,0-8.718-4.091-8.718-9c0-4.909,3.903-9,8.718-9h1.822c-0.048,0-0.078-0.474-0.078-0.778c0-2.945,2.342-5.222,5.231-5.222
				c1.334,0,2.548,0.514,3.472,1.352C96.117,83.9,101.233,80,107.256,80 M107.256,76c-6.07,0-11.658,3.15-14.937,8.146
				C91.786,84.05,91.242,84,90.692,84c-4,0-7.415,2.555-8.693,6.118C75.796,90.978,71,96.427,71,103c0,7.168,5.705,13,12.718,13
				h14.914h1.688l1.178-1.21C108.27,107.834,112,98.675,112,89v-8.93v-3.567l-3.543-0.407C107.823,76.023,107.532,76,107.256,76
				L107.256,76z"/>
		</g>
		<g id="XMLID_1163_">
			<path id="XMLID_18_" d="M62.294,64c3.379,0,6.118,2.865,6.118,6.4c2.534,0,4.588,2.149,4.588,4.8c0,2.651-2.054,4.8-4.588,4.8
				H51.588C49.054,80,47,77.851,47,75.2c0-2.651,2.054-4.8,4.588-4.8c0-1.767,1.369-3.2,3.059-3.2c0.761,0,1.449,0.302,1.984,0.783
				C57.543,65.647,59.734,64,62.294,64 M62.294,60c-2.834,0-5.449,1.192-7.317,3.208c-0.11-0.005-0.22-0.008-0.33-0.008
				c-2.697,0-5.045,1.55-6.233,3.823C45.245,68.319,43,71.496,43,75.2c0,4.852,3.853,8.8,8.588,8.8h16.823
				C73.147,84,77,80.052,77,75.2c0-3.576-2.093-6.661-5.09-8.036C70.583,63.009,66.774,60,62.294,60L62.294,60z"/>
		</g>
		<path id="XMLID_1162_" fill="none" stroke="#ffffff" stroke-width="4" stroke-miterlimit="10" d="M75,134h-6
			c-24.75,0-45-20.25-45-45V55c0-24.75,20.25-45,45-45h6c24.75,0,45,20.25,45,45v34C120,113.75,99.75,134,75,134z"/>
		<g id="XMLID_1159_">
			
				<path id="XMLID_1160_" fill="none" stroke="#ffffff" stroke-width="4" stroke-linecap="round" stroke-linejoin="round" stroke-miterlimit="10" d="
				M69,20c-19.299,0-35,15.701-35,35v34c0,19.299,15.701,35,35,35h6c19.299,0,35-15.701,35-35V55c0-19.299-15.701-35-35-35H69z"/>
		</g>
	</g>
</g>
<g id="International_Travel">
</g>
<g id="Meal">
</g>
<g id="Landing">
</g>
<g id="Shuttle_Bus">
</g>
<g id="Hotel">
</g>
<g id="Hotel_Check-In">
</g>
<g id="Valet_1_">
</g>
<g id="Baggage_Trolley">
</g>
<g id="Door_Hanger">
</g>
<g id="Hotel_Room">
</g>
<g id="Shower">
</g>
</svg>
