<?xml version="1.0" encoding="utf-8"?>
<!-- Generator: Adobe Illustrator 18.1.1, SVG Export Plug-In . SVG Version: 6.00 Build 0)  -->
<svg version="1.1" id="Icons" xmlns="http://www.w3.org/2000/svg" xmlns:xlink="http://www.w3.org/1999/xlink" x="0px" y="0px"
	 viewBox="0 0 144 144" enable-background="new 0 0 144 144" xml:space="preserve">
<g id="Travel_Planning">
</g>
<g id="Globe_1_">
</g>
<g id="Map">
</g>
<g id="Flight_Date">
</g>
<g id="Alarm_Clock">
</g>
<g id="Small_Suitcase">
</g>
<g id="Backpack">
</g>
<g id="Large_Suitcase">
</g>
<g id="Toiletries">
</g>
<g id="Camera">
</g>
<g id="Phone">
</g>
<g id="Laptop">
</g>
<g id="Passport">
</g>
<g id="Taxi">
</g>
<g id="Signs">
</g>
<g id="Airport">
</g>
<g id="Wind_Sock">
</g>
<g id="Check-In">
</g>
<g id="Ticket">
</g>
<g id="Wallet">
</g>
<g id="Tag">
</g>
<g id="Escalator">
</g>
<g id="Body_Scanner">
</g>
<g id="Walking_with_Suitcase">
</g>
<g id="Gate_Number">
</g>
<g id="Seats">
</g>
<g id="Seat_Belt">
</g>
<g id="Take_Off">
</g>
<g id="Plane_Window">
</g>
<g id="International_Travel">
</g>
<g id="Meal">
</g>
<g id="Landing">
</g>
<g id="Shuttle_Bus">
</g>
<g id="Hotel">
	<g id="XMLID_1023_">
		<path id="XMLID_1339_" opacity="0.1" d="M55,46H45c-1.1,0-2-0.9-2-2V34c0-1.1,0.9-2,2-2h10c1.1,0,2,0.9,2,2v10
			C57,45.1,56.1,46,55,46z"/>
		<path id="XMLID_1338_" opacity="0.1" d="M99,68H89c-1.1,0-2-0.9-2-2V56c0-1.1,0.9-2,2-2h10c1.1,0,2,0.9,2,2v10
			C101,67.1,100.1,68,99,68z"/>
		<path id="XMLID_1337_" opacity="0.1" d="M77,90H67c-1.1,0-2-0.9-2-2V78c0-1.1,0.9-2,2-2h10c1.1,0,2,0.9,2,2v10
			C79,89.1,78.1,90,77,90z"/>
		<rect id="XMLID_1336_" x="35" y="124" opacity="0.1" width="24" height="10"/>
		<rect id="XMLID_1335_" x="85" y="124" opacity="0.1" width="24" height="10"/>
		
			<line id="XMLID_1334_" fill="none" stroke="#000000" stroke-width="4" stroke-linecap="round" stroke-linejoin="round" stroke-miterlimit="10" x1="24" y1="20" x2="120" y2="20"/>
		
			<line id="XMLID_1333_" fill="none" stroke="#000000" stroke-width="4" stroke-linecap="round" stroke-linejoin="round" stroke-miterlimit="10" x1="24" y1="134" x2="120" y2="134"/>
		
			<rect id="XMLID_1332_" x="35" y="20" fill="none" stroke="#000000" stroke-width="4" stroke-linecap="round" stroke-linejoin="round" stroke-miterlimit="10" width="74" height="114"/>
		
			<path id="XMLID_1331_" fill="none" stroke="#000000" stroke-width="4" stroke-linecap="round" stroke-linejoin="round" stroke-miterlimit="10" d="
			M83,134H61c-1.1,0-2-0.9-2-2v-24c0-1.1,0.9-2,2-2h22c1.1,0,2,0.9,2,2v24C85,133.1,84.1,134,83,134z"/>
		
			<line id="XMLID_1330_" fill="none" stroke="#000000" stroke-width="4" stroke-linecap="round" stroke-linejoin="round" stroke-miterlimit="10" x1="72" y1="134" x2="72" y2="106"/>
		
			<line id="XMLID_1329_" fill="none" stroke="#000000" stroke-width="4" stroke-linecap="round" stroke-linejoin="round" stroke-miterlimit="10" x1="36" y1="124" x2="59" y2="124"/>
		
			<line id="XMLID_1328_" fill="none" stroke="#000000" stroke-width="4" stroke-linecap="round" stroke-linejoin="round" stroke-miterlimit="10" x1="85" y1="124" x2="108" y2="124"/>
		
			<polygon id="XMLID_1327_" fill="none" stroke="#000000" stroke-width="4" stroke-linecap="round" stroke-linejoin="round" stroke-miterlimit="10" points="
			44,20 44,10 72,20 		"/>
		
			<polygon id="XMLID_1326_" fill="none" stroke="#000000" stroke-width="4" stroke-linecap="round" stroke-linejoin="round" stroke-miterlimit="10" points="
			100,20 100,10 72,20 		"/>
		
			<path id="XMLID_1325_" fill="none" stroke="#000000" stroke-width="4" stroke-linecap="round" stroke-linejoin="round" stroke-miterlimit="10" d="
			M55,46H45c-1.105,0-2-0.895-2-2V34c0-1.105,0.895-2,2-2h10c1.105,0,2,0.895,2,2v10C57,45.105,56.105,46,55,46z"/>
		
			<path id="XMLID_1324_" fill="none" stroke="#000000" stroke-width="4" stroke-linecap="round" stroke-linejoin="round" stroke-miterlimit="10" d="
			M99,46H89c-1.105,0-2-0.895-2-2V34c0-1.105,0.895-2,2-2h10c1.105,0,2,0.895,2,2v10C101,45.105,100.105,46,99,46z"/>
		
			<path id="XMLID_1309_" fill="none" stroke="#000000" stroke-width="4" stroke-linecap="round" stroke-linejoin="round" stroke-miterlimit="10" d="
			M77,46H67c-1.105,0-2-0.895-2-2V34c0-1.105,0.895-2,2-2h10c1.105,0,2,0.895,2,2v10C79,45.105,78.105,46,77,46z"/>
		
			<path id="XMLID_1308_" fill="none" stroke="#000000" stroke-width="4" stroke-linecap="round" stroke-linejoin="round" stroke-miterlimit="10" d="
			M55,68H45c-1.105,0-2-0.895-2-2V56c0-1.105,0.895-2,2-2h10c1.105,0,2,0.895,2,2v10C57,67.105,56.105,68,55,68z"/>
		
			<path id="XMLID_1307_" fill="none" stroke="#000000" stroke-width="4" stroke-linecap="round" stroke-linejoin="round" stroke-miterlimit="10" d="
			M99,68H89c-1.105,0-2-0.895-2-2V56c0-1.105,0.895-2,2-2h10c1.105,0,2,0.895,2,2v10C101,67.105,100.105,68,99,68z"/>
		
			<path id="XMLID_1306_" fill="none" stroke="#000000" stroke-width="4" stroke-linecap="round" stroke-linejoin="round" stroke-miterlimit="10" d="
			M77,68H67c-1.105,0-2-0.895-2-2V56c0-1.105,0.895-2,2-2h10c1.105,0,2,0.895,2,2v10C79,67.105,78.105,68,77,68z"/>
		
			<path id="XMLID_1305_" fill="none" stroke="#000000" stroke-width="4" stroke-linecap="round" stroke-linejoin="round" stroke-miterlimit="10" d="
			M55,90H45c-1.105,0-2-0.895-2-2V78c0-1.105,0.895-2,2-2h10c1.105,0,2,0.895,2,2v10C57,89.105,56.105,90,55,90z"/>
		
			<path id="XMLID_1304_" fill="none" stroke="#000000" stroke-width="4" stroke-linecap="round" stroke-linejoin="round" stroke-miterlimit="10" d="
			M99,90H89c-1.105,0-2-0.895-2-2V78c0-1.105,0.895-2,2-2h10c1.105,0,2,0.895,2,2v10C101,89.105,100.105,90,99,90z"/>
		
			<path id="XMLID_1303_" fill="none" stroke="#000000" stroke-width="4" stroke-linecap="round" stroke-linejoin="round" stroke-miterlimit="10" d="
			M77,90H67c-1.105,0-2-0.895-2-2V78c0-1.105,0.895-2,2-2h10c1.105,0,2,0.895,2,2v10C79,89.105,78.105,90,77,90z"/>
	</g>
</g>
<g id="Hotel_Check-In">
</g>
<g id="Valet_1_">
</g>
<g id="Baggage_Trolley">
</g>
<g id="Door_Hanger">
</g>
<g id="Hotel_Room">
</g>
<g id="Shower">
</g>
</svg>
