<?xml version="1.0" encoding="utf-8"?>
<!-- Generator: Adobe Illustrator 19.1.0, SVG Export Plug-In . SVG Version: 6.00 Build 0)  -->
<svg version="1.1" id="Calque_1" xmlns="http://www.w3.org/2000/svg" xmlns:xlink="http://www.w3.org/1999/xlink" x="0px" y="0px"
	 viewBox="0 0 109.8 109.8" style="enable-background:new 0 0 109.8 109.8;" xml:space="preserve">
<style type="text/css">
	.st0{fill:#505150;}
</style>
<g id="Satellite">
	<g>
		<path class="st0" d="M109,88l-9.3-9.2L81.2,60.2c-1-1-2.9-1-3.9,0l-3.6,3.6l-2.1-2.1l4.2-4.2l6.4-6.4c1.1-1.1,1.1-2.8,0-3.9L81,46
			c0.2,0,0.4,0,0.6,0c1.4,0,2.8-0.2,4.1-0.5c0.2-0.1,0.4-0.1,0.6-0.2c0.2,0,0.3-0.1,0.5-0.1c0,0,0.1,0,0.1,0
			c0.7-0.2,1.3-0.5,1.9-0.8c0.3-0.1,0.6-0.3,0.9-0.4c0.4-0.2,0.8-0.4,1.2-0.7c0.4-0.2,0.8-0.5,1.1-0.8c-0.1,0.1-0.3,0.2-0.4,0.3
			c0.3-0.2,0.6-0.4,0.8-0.6c0.1-0.1,0.3-0.2,0.4-0.3c0.1-0.1,0.2-0.2,0.3-0.3c0.1-0.1,0.3-0.3,0.4-0.4c0.1-0.1,0.3-0.2,0.4-0.4
			c1.1-1.1,1.1-2.8,0-3.9l-8.7-8.7l2.1-2.1c0.1,0,0.1,0,0.2,0c1.1,0,2.1-0.4,2.9-1.2c1.6-1.6,1.6-4.2,0-5.8
			c-0.8-0.8-1.8-1.2-2.9-1.2c-1.1,0-2.1,0.4-2.9,1.2c-0.9,0.9-1.2,2-1.2,3.1l-2.1,2.1l-8.7-8.7c-0.1-0.1-0.3-0.2-0.4-0.4
			c-0.1-0.1-0.2-0.1-0.3-0.2c0,0,0,0,0,0c-0.5-0.2-1-0.3-1.5-0.2h0c0,0-0.1,0-0.2,0c-0.1,0-0.1,0-0.2,0c-0.1,0-0.2,0.1-0.4,0.1
			c-0.1,0.1-0.2,0.1-0.4,0.2c-0.1,0.1-0.3,0.2-0.4,0.4c-0.2,0.2-0.3,0.4-0.5,0.5c-2.6,2.9-4.6,7.4-4.6,12.3v0.2l-1.2-1.2
			c-1.1-1.1-2.8-1.1-3.9,0l-6.4,6.4l-4.1,4.1L46,36.1l3.6-3.6c0.5-0.5,0.8-1.2,0.8-1.9c0-0.7-0.3-1.4-0.8-1.9l-9.2-9.2
			c0,0,0,0-0.1-0.1L31,10.1c0,0,0,0,0,0l-9.2-9.2c-1.1-1.1-2.8-1.1-3.9,0L0.8,17.9c-1.1,1.1-1.1,2.8,0,3.9l9.3,9.2l18.6,18.6
			c0.5,0.5,1.2,0.8,1.9,0.8c0.7,0,1.4-0.3,2-0.8l3.6-3.6l2.1,2.1l-4.2,4.2c0,0,0,0-0.1,0.1l-6.4,6.4c-0.5,0.5-0.8,1.2-0.8,1.9
			c0,0.1,0,0.2,0,0.3c0,0.1,0,0.2,0,0.3c0,0.1,0,0.1,0,0.2c0.1,0.4,0.4,0.8,0.7,1.2l19.6,19.6c0.5,0.5,1.2,0.8,1.9,0.8
			c0.7,0,1.4-0.3,2-0.8l6.4-6.4l4.2-4.2l2.1,2.1l-3.5,3.5c-1.1,1.1-1.1,2.8,0,3.9l18.6,18.6L88,109c0.5,0.5,1.2,0.8,1.9,0.8
			c0.7,0,1.4-0.3,2-0.8L109,91.9C110.1,90.8,110.1,89.1,109,88z M69.3,26.8c0.2-1.8,0.8-3.4,1.7-4.9l0,0l8.4,8.4l8.4,8.4l0,0
			c-1.1,0.7-2.3,1.2-3.5,1.5c-0.5,0.1-0.9,0.2-1.4,0.3c-3.1,0.5-6-0.3-8.7-2.3c-0.1,0-0.1-0.1-0.2-0.1c-0.2-0.1-0.3-0.3-0.5-0.4
			c-0.2-0.1-0.4-0.3-0.5-0.5c0,0-0.1-0.1-0.1-0.1l-0.2-0.2c-0.2-0.2-0.3-0.3-0.5-0.5c-0.1-0.1-0.3-0.3-0.4-0.4
			c-0.2-0.3-1.2-1.6-1.4-2c-0.1-0.1-0.2-0.3-0.2-0.4c-0.1-0.3-0.3-0.5-0.4-0.8c0-0.1-0.1-0.3-0.1-0.4c-0.1-0.4-0.2-0.7-0.3-1.1
			c0-0.1-0.1-0.3-0.1-0.4c0-0.1-0.1-0.3-0.1-0.4c0-0.1,0-0.3-0.1-0.4C69.1,28.8,69.2,27.8,69.3,26.8z M60.6,33.5l15.7,15.7l-2.5,2.5
			L58.1,36L60.6,33.5z M6.6,19.8L19.8,6.6l5.4,5.4L12,25.2L6.6,19.8z M15.9,29.1l13.2-13.2l5.4,5.4L21.3,34.5L15.9,29.1z M34.2,40.1
			l-3.6,3.6l-5.4-5.4l13.2-13.2l5.4,5.4l-3.6,3.6L34.2,40.1z M44.2,42.1l-2.1,2.1L40,42.1l2.1-2.1L44.2,42.1z M49.1,76.4L33.4,60.7
			l2.5-2.5l15.7,15.7L49.1,76.4z M59.7,65.8L55.5,70L39.8,54.3l4.2-4.2c0,0,0.1-0.1,0.1-0.1l6-6l4.1-4.1l15.7,15.7l-4.2,4.2
			L59.7,65.8z M67.6,65.6l2.1,2.1l-2.1,2.1l-2.1-2.1L67.6,65.6z M66.1,79.2l3.5-3.5l6-6l3.6-3.6l5.4,5.4L71.4,84.6L66.1,79.2z
			 M75.3,88.4l13.2-13.2l5.4,5.4L80.7,93.9L75.3,88.4z M90,103.1l-5.4-5.4l13.2-13.2l5.4,5.4L90,103.1z"/>
	</g>
	<g>
		<path class="st0" d="M96.3,28.9c-0.4,0-0.8-0.1-1.2-0.3c-1.4-0.6-2-2.3-1.3-3.7c0.5-1,1.8-4.6-1.3-7.7c-3.1-3.1-6.8-1.8-7.8-1.4
			c-1.4,0.6-3,0-3.6-1.4c-0.6-1.4,0-3,1.4-3.6C86.3,9.2,92,9,96.5,13.4c4.4,4.4,4.1,10.1,2.4,13.9C98.4,28.3,97.4,28.9,96.3,28.9z"
			/>
	</g>
	<g>
		<path class="st0" d="M81.3,7.4c-1.1,0-2.1-0.6-2.5-1.6c-0.6-1.4,0-3,1.4-3.6c2.2-1,4.7-1.5,7.4-1.6c1.5,0,2.8,1.1,2.8,2.7
			c0,1.5-1.1,2.8-2.7,2.8c-1.9,0.1-3.8,0.4-5.3,1.1C82,7.4,81.6,7.4,81.3,7.4z"/>
	</g>
	<g>
		<path class="st0" d="M105.1,31.3c-0.4,0-0.8-0.1-1.2-0.3c-1.4-0.6-2-2.3-1.3-3.7c2.1-4.6,1.7-11.9-3.2-16.8
			c-1.3-1.3-2.8-2.4-4.5-3.1c-1.4-0.6-2-2.2-1.4-3.6s2.2-2,3.6-1.4c2.3,1,4.4,2.5,6.2,4.2c6.7,6.7,7.2,16.7,4.3,23
			C107.1,30.7,106.1,31.3,105.1,31.3z"/>
	</g>
</g>
</svg>
