<?xml version="1.0" encoding="utf-8"?>
<!-- Generator: Adobe Illustrator 19.1.0, SVG Export Plug-In . SVG Version: 6.00 Build 0)  -->
<svg version="1.1" id="Calque_1" xmlns="http://www.w3.org/2000/svg" xmlns:xlink="http://www.w3.org/1999/xlink" x="0px" y="0px"
	 viewBox="0 0 85.1 55.4" style="enable-background:new 0 0 85.1 55.4;" xml:space="preserve">
<style type="text/css">
	.st0{fill:#E1E1E1;}
</style>
<g id="Planet">
	<g>
		<path class="st0" d="M9.8,14.8c0,2.7-2.2,4.9-4.9,4.9c-2.7,0-4.9-2.2-4.9-4.9c0-2.7,2.2-4.9,4.9-4.9C7.6,9.9,9.8,12.1,9.8,14.8z"
			/>
	</g>
	<g>
		<path class="st0" d="M84.9,14.4c-2.3-7.1-15.8-6.5-21.7-5.9C58,3.2,50.9,0,43.1,0c-2.9,0-5.7,0.4-8.4,1.3
			c-7,2.2-12.8,7.1-16.2,13.7c-1.4,2.8-2.4,5.7-2.8,8.7C10.4,26.6-0.9,33.9,1.3,41c1.6,5.1,9,6.2,15.2,6.2c2.5,0,4.8-0.2,6.5-0.4
			c5.1,5.4,12.2,8.6,20,8.6c2.8,0,5.7-0.4,8.4-1.3c10.4-3.3,17.5-12.2,19-22.3C75.7,28.8,87.1,21.5,84.9,14.4z M6.6,39.3
			c-0.5-1.6,3.5-5.6,8.9-9.1c0.2,2,0.6,4,1.2,5.9c0.6,2,1.4,3.8,2.4,5.5C12.7,41.9,7.1,41,6.6,39.3z M49.8,48.8
			c-2.2,0.7-4.5,1.1-6.8,1.1c-4.8,0-9.2-1.5-12.9-4.1c4.2-0.8,10.5-2.1,17.3-4.3c6.8-2.2,12.6-4.7,16.5-6.5
			C61.8,41.4,56.7,46.6,49.8,48.8z M45.8,36.3c-9.1,2.9-17.2,4.3-20.5,4.8c-1.5-1.9-2.6-4.2-3.4-6.6c-0.9-2.9-1.2-5.8-1-8.7
			c0.2-2.8,1-5.6,2.4-8.3c2.7-5.3,7.3-9.2,13-11c2.2-0.7,4.5-1.1,6.8-1.1c6.6,0,12.6,2.8,16.7,7.6c0.1,0.1,0.2,0.2,0.2,0.3
			c0,0,0,0,0,0c1.8,2.2,3.3,4.7,4.2,7.6c0.8,2.4,1.1,4.9,1,7.3C62.4,29.8,55,33.4,45.8,36.3z M70.7,25.2c-0.2-2-0.6-4-1.2-5.9
			c-0.6-2-1.4-3.8-2.4-5.5c6.4-0.3,12,0.6,12.6,2.3C80.1,17.7,76.1,21.7,70.7,25.2z"/>
	</g>
	<g>
		<path class="st0" d="M43,11"/>
	</g>
	<g>
		<path class="st0" d="M58.7,26.4c-1.1,0-2.2-0.7-2.6-1.8c-0.9-2.6-2.6-4.9-4.8-6.7c-1.2-1-1.4-2.7-0.4-3.9c1-1.2,2.7-1.4,3.9-0.4
			c3,2.4,5.3,5.6,6.5,9.1c0.5,1.4-0.2,3-1.7,3.5C59.3,26.4,59,26.4,58.7,26.4z"/>
	</g>
	<g>
		<path class="st0" d="M45.5,14.9c-0.2,0-0.4,0-0.6-0.1c-0.6-0.1-1.3-0.2-2-0.3c-1.5-0.1-2.6-1.5-2.5-3s1.5-2.6,3-2.5
			c0.9,0.1,1.8,0.2,2.7,0.4c1.5,0.3,2.4,1.8,2.1,3.3C47.9,14,46.7,14.9,45.5,14.9z"/>
	</g>
</g>
</svg>
