<?xml version="1.0" encoding="utf-8"?>
<!DOCTYPE svg PUBLIC "-//W3C//DTD SVG 1.1//EN" "http://www.w3.org/Graphics/SVG/1.1/DTD/svg11.dtd">
<svg version="1.1" id="supermint-logo" viewBox="70.388 9 72 72" preserveAspectRatio="xMinYMin meet" class="svg-content">
<style type="text/css">
	.st0{fill:#18AEDF;}
	.st1{opacity:0.2;}
	.st2{fill:#FFFFFF;}
</style>
<rect x="70.388" y="9" class="st0" width="72" height="72"/>
<g>
	<path class="st2" d="M105.726,22.5c-8.672,0-16.173,4.662-20.199,11.485c-4.769,8.081,1.892,10.489,6.935,9.634
		c0.95-0.161,3.349-0.788,4.821-2.909c1.472-2.12,4.872-4.684,6.801-7.247c1.927-2.564,2.283-4.19,2.283-5.423
		c0-1.233,1.979-0.739,2.74,0.937c0.762,1.676,0.407,4.486-0.912,6.014c-1.32,1.528-2.233,3.451-0.964,3.796
		c1.269,0.345,3.247,0.69,4.517,0.788c1.269,0.099,3.095,0.345,3.398,2.121c0.305,1.775,0.052,2.711-0.761,3.155
		c0.965,0.445,1.624,3.007-0.051,4.19c1.066,0.986,0.306,3.452-1.725,4.043c0.456,1.38,0.152,3.105-2.182,3.451
		c-2.335,0.345-7.794,0.649-11.165-0.196c-8.898-2.233-9.828,5.592-4.379,8.546c3.198,1.733,6.925,2.614,10.844,2.614
		c12.791,0,23.16-10.073,23.16-22.5C128.887,32.574,118.518,22.5,105.726,22.5z"/>
	<path class="st1" d="M109.107,28.977c0.762,1.676,0.407,4.486-0.912,6.014c-1.32,1.528-2.233,3.451-0.964,3.796
		c1.269,0.345,3.247,0.69,4.517,0.789c1.269,0.099,3.095,0.345,3.398,2.12c0.305,1.775,0.052,2.712-0.761,3.155
		c0.965,0.444,1.624,3.007-0.051,4.19c1.066,0.985,0.306,3.452-1.725,4.043c0.456,1.381,0.152,3.105-2.182,3.451
		c-2.335,0.345-7.794,0.65-11.165-0.196c-8.898-2.233-9.828,5.593-4.379,8.547c3.198,1.733,6.925,2.613,10.844,2.613
		c11.747,0,21.448-8.495,22.956-19.506L109.107,28.977z"/>
</g>
</svg>
