<?xml version="1.0" encoding="utf-8"?>
<!-- Generator: Adobe Illustrator 18.1.1, SVG Export Plug-In . SVG Version: 6.00 Build 0)  -->
<svg version="1.1" id="Icons" xmlns="http://www.w3.org/2000/svg" xmlns:xlink="http://www.w3.org/1999/xlink" x="0px" y="0px"
	 viewBox="0 0 144 144" enable-background="new 0 0 144 144" xml:space="preserve">
<g id="Travel_Planning">
</g>
<g id="Globe_1_">
</g>
<g id="Map">
</g>
<g id="Flight_Date">
</g>
<g id="Alarm_Clock">
</g>
<g id="Small_Suitcase">
</g>
<g id="Backpack">
</g>
<g id="Large_Suitcase">
</g>
<g id="Toiletries">
</g>
<g id="Camera">
</g>
<g id="Phone">
</g>
<g id="Laptop">
</g>
<g id="Passport">
</g>
<g id="Taxi">
</g>
<g id="Signs">
</g>
<g id="Airport">
</g>
<g id="Wind_Sock">
</g>
<g id="Check-In">
</g>
<g id="Ticket">
</g>
<g id="Wallet">
</g>
<g id="Tag">
</g>
<g id="Escalator">
</g>
<g id="Body_Scanner">
</g>
<g id="Walking_with_Suitcase">
</g>
<g id="Gate_Number">
</g>
<g id="Seats">
</g>
<g id="Seat_Belt">
</g>
<g id="Take_Off">
</g>
<g id="Plane_Window">
</g>
<g id="International_Travel">
	<g id="XMLID_1109_">
		<path id="XMLID_1118_" opacity="0.1" d="M114.169,81l5.596-3.224l3.445-23.589l7.131-4.111c1.338-0.771,4.559-5.578,3.418-7.548
			c-1.141-1.97-6.923-1.593-8.261-0.822l-7.131,4.111L96.178,37l-5.596,3.224l17.483,11.529l-8.712,5.021l-6.246-2.091l-5.109,2.943
			l8.296,6.491l1.484,10.416l5.109-2.943l1.31-6.446l8.712-5.021L114.169,81z"/>
		<path id="XMLID_1117_" opacity="0.1" d="M68.999,47c1.167-4.333-11.167-9.333-1-16l-0.151-0.805
			C66.578,30.079,65.298,30,63.999,30c-16.321,0-30.457,9.316-37.409,22.914L26.999,53c5.667-4.833,20.139,4.408,15,12
			c-7.333,10.833,1.702,11.618,10,11c4.5-0.5,9.944-2.619,8-13C58.311,53.984,67.832,51.333,68.999,47z"/>
		<path id="XMLID_1116_" opacity="0.1" d="M101.9,90.1c-4.708,5.103-8.798,2.369-11.901-2.1c-3.125-4.5-8.75-5-12,2
			s-6.625,0.5-13,10c-6.131,9.137-0.471,13.647-0.03,13.978C81.269,113.607,95.27,103.958,101.9,90.1z"/>
		
			<path id="XMLID_1115_" fill="none" stroke="#ffffff" stroke-width="4" stroke-linecap="round" stroke-linejoin="round" stroke-miterlimit="10" d="
			M105.418,78.999C102.086,98.864,84.81,114,63.999,114c-23.196,0-42-18.804-42-42s18.804-42,42-42
			c7.198,0,13.973,1.811,19.894,5.001"/>
		
			<path id="XMLID_1114_" fill="none" stroke="#ffffff" stroke-width="4" stroke-linecap="round" stroke-linejoin="round" stroke-miterlimit="10" d="
			M114.169,81l5.596-3.224l3.445-23.589l7.131-4.111c1.338-0.771,4.559-5.578,3.418-7.548c-1.141-1.97-6.923-1.593-8.261-0.822
			l-7.131,4.111L96.178,37l-5.596,3.224l17.483,11.529l-8.712,5.021l-6.246-2.091l-5.109,2.943l8.296,6.491l1.484,10.416
			l5.109-2.943l1.31-6.446l8.712-5.021L114.169,81z"/>
		
			<path id="XMLID_1113_" fill="none" stroke="#ffffff" stroke-width="4" stroke-linecap="round" stroke-linejoin="round" stroke-miterlimit="10" d="
			M86.999,69C45.166,92.5,11.897,90.5,10.097,80c-0.834-4.867,3.85-10.019,11.8-15.066"/>
		
			<path id="XMLID_1112_" fill="none" stroke="#ffffff" stroke-width="4" stroke-linecap="round" stroke-linejoin="round" stroke-miterlimit="10" d="
			M67.999,31c-10.167,6.667,2.167,11.667,1,16c-1.167,4.333-10.688,6.984-9,16c1.944,10.381-3.5,12.5-8,13
			c-8.298,0.618-17.333-0.167-10-11c5.139-7.592-9.333-16.833-15-12"/>
		
			<path id="XMLID_1110_" fill="none" stroke="#ffffff" stroke-width="4" stroke-linecap="round" stroke-linejoin="round" stroke-miterlimit="10" d="
			M64.999,114c0,0-6.375-4.5,0-14s9.75-3,13-10s8.875-6.5,12-2s7.25,7.25,12,2"/>
	</g>
</g>
<g id="Meal">
</g>
<g id="Landing">
</g>
<g id="Shuttle_Bus">
</g>
<g id="Hotel">
</g>
<g id="Hotel_Check-In">
</g>
<g id="Valet_1_">
</g>
<g id="Baggage_Trolley">
</g>
<g id="Door_Hanger">
</g>
<g id="Hotel_Room">
</g>
<g id="Shower">
</g>
</svg>
