<?xml version="1.0" encoding="utf-8"?>
<!-- Generator: Adobe Illustrator 19.1.0, SVG Export Plug-In . SVG Version: 6.00 Build 0)  -->
<svg version="1.1" id="Calque_1" xmlns="http://www.w3.org/2000/svg" xmlns:xlink="http://www.w3.org/1999/xlink" x="0px" y="0px"
	 viewBox="0 0 94.3 56.8" style="enable-background:new 0 0 94.3 56.8;" xml:space="preserve">
<style type="text/css">
	.st0{fill:#505150;}
</style>
<path id="Constellation" class="st0" d="M94.1,42.6c-0.6-3.3-3.3-5.8-6.6-6.4l-3-15.4c2.4-1.6,3.7-4.5,3.1-7.5c-0.7-3.5-3.7-6-7.2-6
	c-0.5,0-0.9,0-1.4,0.1c-1.9,0.4-3.6,1.5-4.7,3.1c-0.6,0.8-1,1.8-1.1,2.8l-15.3,3c-1.4-2.1-3.8-3.5-6.4-3.5c-0.5,0-1,0-1.4,0.1
	c-1.1,0.2-2.1,0.6-3,1.3l-7.4-5c0.2-1,0.3-2.1,0.1-3.1C39,2.5,36,0,32.5,0c-0.5,0-0.9,0-1.4,0.1c-1.9,0.4-3.6,1.5-4.7,3.1
	c-0.8,1.2-1.2,2.5-1.3,3.9l-13.2,4.1C10.7,10,8.9,9.2,7,9.2c-0.5,0-0.9,0-1.3,0.1c-1.8,0.3-3.4,1.4-4.4,2.9c-1,1.5-1.4,3.4-1.1,5.2
	c0.6,3.3,3.5,5.6,6.8,5.6c0.4,0,0.9,0,1.3-0.1c3.2-0.6,5.5-3.4,5.6-6.6L27,12.3c1.4,1.5,3.3,2.4,5.5,2.4c0.5,0,0.9,0,1.4-0.1
	c0.9-0.2,1.8-0.5,2.6-1l7.6,5.1c-0.2,1-0.2,2.1,0,3.1c0.6,3.1,3.1,5.5,6.1,6l3,15.5c-0.8,0.5-1.5,1.2-2,2C50,47,49.6,48.9,50,50.9
	c0.7,3.5,3.7,6,7.2,6c0.5,0,1,0,1.4-0.1c3-0.6,5.3-3,5.8-5.9L79.2,48c1.4,2.5,4,4.2,7.1,4.2c0.5,0,1,0,1.5-0.1
	C92.1,51.2,95,47,94.1,42.6z M7.2,17.6c-0.8,0.2-1.6-0.4-1.7-1.1c-0.1-0.4,0-0.8,0.2-1.1C6,15,6.3,14.8,6.7,14.7c0.1,0,0.2,0,0.3,0
	c0.7,0,1.3,0.5,1.4,1.2C8.6,16.7,8,17.4,7.2,17.6z M33.9,8.6c-0.3,0.3-0.6,0.6-1.1,0.7c-1,0.2-2-0.5-2.2-1.5c-0.1-0.5,0-1,0.3-1.4
	c0.3-0.4,0.7-0.7,1.2-0.8c0.1,0,0.2,0,0.4,0c0.9,0,1.7,0.6,1.8,1.5C34.4,7.6,34.2,8.2,33.9,8.6z M51.9,22.4
	c-1.1,0.2-2.3-0.5-2.5-1.7c-0.1-0.5,0-1.1,0.3-1.5c0,0,0,0,0,0c0.3-0.5,0.8-0.8,1.4-0.9c0.1,0,0.3,0,0.4,0c1,0,1.9,0.7,2.1,1.7
	C53.8,21.1,53,22.2,51.9,22.4z M57.6,51.3c-1,0.2-2-0.5-2.2-1.5c-0.1-0.5,0-1,0.3-1.4c0.3-0.4,0.7-0.7,1.2-0.8c0.1,0,0.2,0,0.4,0
	c0.9,0,1.7,0.6,1.8,1.5C59.3,50.1,58.6,51.1,57.6,51.3z M79.6,39.6c-0.6,0.9-1,1.9-1.2,2.9l-15,2.9c-1.1-1.7-2.9-2.9-4.9-3.2
	l-3-15.4c1.8-1.1,3.1-3,3.4-5.1l15.3-3c1.1,1.7,2.9,2.9,4.9,3.2l3,15.3C81.1,37.8,80.3,38.6,79.6,39.6z M80.8,16.5
	c-1,0.2-2-0.5-2.2-1.5c-0.1-0.5,0-1,0.3-1.4c0.3-0.4,0.7-0.7,1.2-0.8c0.1,0,0.2,0,0.4,0c0.9,0,1.7,0.6,1.8,1.5
	C82.5,15.3,81.8,16.3,80.8,16.5z M88.5,45.4c0,0-0.1,0.1-0.1,0.1c-0.3,0.6-0.9,1-1.6,1.1c-0.3,0.1-0.6,0.1-0.8,0
	c-1.1-0.2-1.9-1-2.2-2c-0.1-0.7,0-1.3,0.4-1.9c0.4-0.6,1-1,1.6-1.1c0.2,0,0.3,0,0.5,0c1.2,0,2.3,0.9,2.5,2.1
	C88.9,44.3,88.8,44.9,88.5,45.4z"/>
</svg>
