<?xml version="1.0" encoding="utf-8"?>
<!-- Generator: Adobe Illustrator 16.0.0, SVG Export Plug-In . SVG Version: 6.00 Build 0)  -->
<!DOCTYPE svg PUBLIC "-//W3C//DTD SVG 1.1//EN" "http://www.w3.org/Graphics/SVG/1.1/DTD/svg11.dtd">
<svg version="1.1" id="Layer_1" xmlns="http://www.w3.org/2000/svg" xmlns:xlink="http://www.w3.org/1999/xlink" x="0px" y="0px"
	 width="72px" height="72px" viewBox="70.388 9 72 72" style="enable-background:new 70.388 9 72 72;" xml:space="preserve">
<style type="text/css">
<![CDATA[
	.st0{fill:#18AEDF;}
	.st1{opacity:0.2;enable-background:new    ;}
	.st2{fill:#FFFFFF;}
]]>
</style>
<rect x="70.388" y="9" class="st0" width="72" height="72"/>
<g>
	<path class="st2" d="M105.33,9C91.455,9,79.453,16.458,73.01,27.375c-7.63,12.929,3.028,16.782,11.096,15.415
		c1.52-0.258,5.359-1.261,7.713-4.654c2.355-3.391,7.795-7.493,10.882-11.594c3.083-4.103,3.653-6.705,3.653-8.677
		s3.166-1.183,4.384,1.499c1.219,2.682,0.651,7.178-1.461,9.623c-2.111,2.445-3.572,5.522-1.541,6.074
		c2.029,0.553,5.195,1.104,7.227,1.261c2.029,0.158,4.952,0.552,5.438,3.393c0.487,2.84,0.081,4.338-1.218,5.048
		c1.543,0.711,2.598,4.812-0.082,6.705c1.706,1.577,0.488,5.522-2.759,6.469c0.73,2.207,0.242,4.969-3.491,5.521
		c-3.736,0.551-12.47,1.038-17.864-0.315c-14.238-3.572-15.725,8.948-7.007,13.675C93.098,79.592,99.061,81,105.332,81
		c20.464,0,37.056-16.118,37.056-36C142.387,25.118,125.795,9,105.33,9z"/>
	<path class="st1" d="M110.739,19.363c1.219,2.682,0.651,7.178-1.461,9.623c-2.111,2.445-3.572,5.522-1.541,6.074
		c2.029,0.553,5.195,1.104,7.227,1.261c2.029,0.158,4.952,0.552,5.438,3.393c0.487,2.84,0.081,4.338-1.218,5.048
		c1.543,0.711,2.598,4.812-0.082,6.704c1.706,1.577,0.488,5.523-2.759,6.469c0.73,2.209,0.242,4.97-3.491,5.521
		c-3.736,0.552-12.47,1.04-17.864-0.314c-14.238-3.573-15.725,8.949-7.007,13.676c5.117,2.774,11.08,4.182,17.351,4.182
		c18.794,0,34.317-13.593,36.729-31.21L110.739,19.363z"/>
</g>
</svg>
