<?xml version="1.0" encoding="utf-8"?>
<!-- Generator: Adobe Illustrator 16.0.0, SVG Export Plug-In . SVG Version: 6.00 Build 0)  -->
<!DOCTYPE svg PUBLIC "-//W3C//DTD SVG 1.1//EN" "http://www.w3.org/Graphics/SVG/1.1/DTD/svg11.dtd">
<svg version="1.1" id="Layer_1" xmlns="http://www.w3.org/2000/svg" xmlns:xlink="http://www.w3.org/1999/xlink" x="0px" y="0px"
	 width="180px" height="109.455px" viewBox="0 0 180 109.455" enable-background="new 0 0 180 109.455" xml:space="preserve">
<g>
	<polygon fill="#383433" points="21.041,14.584 40.4,1.648 32.328,27.383 0,36.641 8.074,1.648 	"/>
	<polygon fill="#383433" points="33.135,109.455 180,69.457 162.635,37.547 18.084,77.545 	"/>
	<g>
		<g>
			<path fill="#FFFFFF" d="M46.585,95.206c-0.106,0.029-0.274,0.074-0.504,0.136c-0.228,0.062-0.472,0.129-0.731,0.198
				c-0.259,0.07-0.503,0.137-0.731,0.198c-0.229,0.062-0.396,0.107-0.503,0.136l-1.305,0.353c-0.106,0.029-0.273,0.074-0.503,0.137
				c-0.229,0.062-0.469,0.127-0.72,0.194c-0.252,0.068-0.491,0.134-0.721,0.195s-0.396,0.107-0.503,0.136l-0.046-0.01l0.06-0.433
				l0.111-0.124c0.244-0.065,0.519-0.15,0.822-0.257c0.305-0.104,0.517-0.228,0.637-0.368s0.245-0.313,0.38-0.52
				c0.134-0.206,0.21-0.527,0.231-0.966c0.013-0.11,0.021-0.24,0.025-0.388c0.005-0.147,0.009-0.33,0.011-0.546
				c0.003-0.216,0.003-0.479-0.004-0.785s-0.016-0.69-0.025-1.15l-0.103-4.668c-0.022-0.997-0.051-1.878-0.083-2.648
				s-0.06-1.354-0.083-1.748l-0.252,0.068c-0.763,0.206-1.388,0.376-1.875,0.507c-0.488,0.133-0.881,0.25-1.178,0.354
				c-0.297,0.104-0.518,0.19-0.661,0.261c-0.145,0.068-0.246,0.136-0.307,0.199c-0.332,0.276-0.528,0.733-0.591,1.373l-0.089,0.117
				l-0.526,0.143l0.102-2.666l0.088-0.232l0.136-0.105c0.123,0.021,0.391,0,0.804-0.066c0.412-0.065,0.862-0.165,1.351-0.297
				c0.487-0.132,0.957-0.259,1.406-0.381c0.45-0.121,0.774-0.209,0.972-0.263l2.882-0.779c0.198-0.054,0.522-0.142,0.973-0.263
				c0.449-0.122,0.918-0.249,1.406-0.381c0.487-0.132,0.938-0.276,1.348-0.434c0.411-0.156,0.676-0.277,0.797-0.365l0.139,0.031
				l0.096,0.182l0.241,2.574l-0.549,0.148l-0.094-0.068c-0.09-0.599-0.305-0.944-0.644-1.039c-0.062-0.03-0.166-0.041-0.312-0.033
				c-0.146,0.009-0.367,0.042-0.665,0.099c-0.298,0.058-0.69,0.151-1.179,0.284c-0.488,0.132-1.105,0.299-1.853,0.501l-0.252,0.067
				c-0.005,0.449-0.004,1.035,0.005,1.758c0.008,0.723,0.023,1.604,0.047,2.646l0.093,4.231c0.013,0.552,0.022,1,0.03,1.346
				c0.007,0.345,0.017,0.631,0.03,0.859c0.012,0.228,0.024,0.421,0.035,0.579s0.026,0.328,0.046,0.508
				c0.04,0.422,0.13,0.697,0.271,0.83c0.142,0.131,0.274,0.234,0.398,0.309s0.339,0.082,0.645,0.021
				c0.305-0.059,0.581-0.122,0.824-0.188l0.116,0.062l0.078,0.396L46.585,95.206z"/>
			<path fill="#FFFFFF" d="M59.149,76.564c0.198-0.054,0.5-0.136,0.903-0.245c0.404-0.109,0.812-0.22,1.224-0.331
				c0.412-0.111,0.781-0.211,1.109-0.3c0.327-0.089,0.53-0.144,0.606-0.164l0.118,0.175l-0.036,2.529l-0.572,0.154l-0.093-0.068
				c-0.038-0.349-0.087-0.617-0.145-0.805s-0.213-0.293-0.467-0.319c-0.254-0.024-0.632,0.03-1.135,0.167
				c-0.504,0.136-1.213,0.328-2.127,0.575l-2.195,0.594l-0.026,0.898c-0.011,0.246-0.017,0.454-0.021,0.622
				c-0.003,0.169-0.007,0.375-0.009,0.619c-0.003,0.245,0.001,0.537,0.008,0.877c0.008,0.34,0.026,1.162,0.055,2.465
				c0.457-0.124,0.914-0.248,1.371-0.371c0.457-0.124,0.873-0.236,1.246-0.338c0.373-0.101,0.689-0.214,0.948-0.338
				c0.258-0.124,0.431-0.254,0.521-0.387c0.118-0.157,0.223-0.311,0.312-0.459c0.088-0.148,0.13-0.34,0.125-0.573l0.112-0.145
				l0.387-0.149l0.093,0.02c-0.023,0.361-0.043,0.674-0.06,0.939c-0.018,0.268-0.022,0.568-0.015,0.904
				c0.008,0.367,0.026,0.705,0.057,1.012c0.029,0.307,0.063,0.64,0.103,0.998l-0.091,0.071l-0.413,0.065l-0.093-0.045
				c-0.005-0.249-0.056-0.466-0.151-0.651c-0.097-0.185-0.208-0.331-0.333-0.438c-0.093-0.069-0.27-0.092-0.53-0.069
				c-0.26,0.023-0.572,0.085-0.939,0.184c-0.365,0.1-0.776,0.211-1.234,0.334c-0.457,0.124-0.922,0.25-1.395,0.377l0.049,2.223
				c0.013,0.549,0.022,0.996,0.029,1.34c0.008,0.344,0.017,0.648,0.031,0.914c0.014,0.265,0.03,0.506,0.051,0.723
				c0.02,0.218,0.048,0.467,0.085,0.749c0.007,0.291,0.162,0.396,0.468,0.313l1.943-0.525c0.915-0.248,1.635-0.462,2.16-0.643
				c0.525-0.18,0.923-0.369,1.194-0.566c0.272-0.196,0.463-0.438,0.571-0.722c0.109-0.284,0.212-0.646,0.311-1.089l0.089-0.116
				l0.595-0.161l-0.348,3.01l-0.178,0.278c-0.076,0.021-0.252,0.067-0.526,0.142s-0.583,0.158-0.927,0.251
				c-0.343,0.093-0.687,0.186-1.028,0.278c-0.343,0.093-0.614,0.166-0.812,0.22l-4.619,1.25c-0.107,0.028-0.283,0.076-0.526,0.142
				c-0.244,0.066-0.495,0.135-0.755,0.205c-0.259,0.07-0.511,0.138-0.754,0.203c-0.244,0.066-0.42,0.114-0.526,0.143l-0.047-0.011
				l0.06-0.433l0.112-0.123c0.244-0.065,0.472-0.139,0.686-0.22c0.213-0.081,0.387-0.193,0.521-0.339
				c0.12-0.139,0.235-0.31,0.346-0.509s0.177-0.518,0.197-0.956c-0.002-0.107-0.002-0.234,0.004-0.383
				c0.004-0.147,0.008-0.329,0.011-0.545c0.002-0.217,0.001-0.479-0.006-0.785s-0.016-0.689-0.025-1.15l-0.103-4.668
				c-0.013-0.537-0.022-0.988-0.03-1.357c-0.008-0.367-0.015-0.682-0.021-0.941c-0.006-0.262-0.015-0.482-0.026-0.664
				c-0.011-0.182-0.028-0.363-0.046-0.543c-0.04-0.405-0.119-0.681-0.237-0.827c-0.118-0.145-0.239-0.254-0.363-0.329
				c-0.141-0.069-0.317-0.088-0.531-0.054c-0.214,0.036-0.442,0.086-0.687,0.151l-0.116-0.061l-0.078-0.395l0.046-0.036
				c0.106-0.028,0.282-0.076,0.526-0.142c0.243-0.066,0.506-0.138,0.789-0.214c0.281-0.076,0.556-0.15,0.822-0.223
				c0.268-0.072,0.484-0.131,0.652-0.177L59.149,76.564z"/>
			<path fill="#FFFFFF" d="M86.675,84.385c-0.106,0.029-0.282,0.076-0.526,0.143s-0.496,0.135-0.754,0.204
				c-0.26,0.07-0.511,0.139-0.755,0.204c-0.244,0.066-0.42,0.113-0.526,0.143l-0.435,0.117c-0.106,0.029-0.282,0.076-0.526,0.143
				s-0.495,0.135-0.754,0.204c-0.26,0.07-0.511,0.138-0.755,0.204s-0.42,0.113-0.526,0.143l-0.069-0.005l0.06-0.433l0.09-0.117
				c0.244-0.065,0.476-0.14,0.696-0.223s0.391-0.194,0.511-0.335c0.104-0.136,0.204-0.302,0.3-0.497
				c0.095-0.195,0.139-0.508,0.129-0.938c-0.002-0.107-0.005-0.233-0.009-0.38c-0.003-0.146-0.011-0.324-0.023-0.536
				c-0.012-0.213-0.029-0.47-0.051-0.773c-0.022-0.302-0.054-0.679-0.094-1.13c-0.158-1.577-0.282-2.835-0.371-3.774
				c-0.09-0.94-0.164-1.672-0.221-2.196c-0.058-0.523-0.1-0.897-0.129-1.121c-0.027-0.225-0.051-0.411-0.069-0.56
				c-0.102,0.305-0.259,0.775-0.475,1.412c-0.217,0.637-0.465,1.367-0.746,2.19c-0.28,0.824-0.58,1.704-0.897,2.638
				c-0.316,0.934-0.629,1.857-0.938,2.774s-0.604,1.784-0.887,2.6c-0.28,0.815-0.522,1.514-0.724,2.093l-1.076,0.291l-4.845-11.088
				c-0.012,0.157-0.023,0.322-0.035,0.495c-0.011,0.173-0.022,0.38-0.032,0.622c-0.01,0.241-0.022,0.523-0.038,0.843
				c-0.018,0.32-0.035,0.715-0.055,1.183l-0.228,4.317c-0.033,0.533-0.056,0.972-0.063,1.312c-0.008,0.342-0.017,0.638-0.025,0.887
				c-0.011,0.25-0.014,0.458-0.01,0.626c0.003,0.169,0.007,0.346,0.011,0.529c0.01,0.43,0.066,0.715,0.169,0.857
				c0.103,0.141,0.217,0.25,0.341,0.323c0.124,0.074,0.267,0.102,0.428,0.082c0.16-0.021,0.363-0.063,0.606-0.13l0.094,0.066
				l0.077,0.396l-0.043,0.104c-0.107,0.029-0.263,0.067-0.47,0.116c-0.206,0.047-0.415,0.097-0.63,0.147
				c-0.213,0.049-0.423,0.099-0.629,0.146c-0.205,0.047-0.362,0.087-0.469,0.115l-0.435,0.118c-0.106,0.028-0.278,0.075-0.515,0.14
				c-0.236,0.063-0.488,0.132-0.755,0.203c-0.267,0.072-0.519,0.141-0.754,0.205c-0.237,0.063-0.408,0.109-0.515,0.139l-0.047-0.011
				l0.06-0.433l0.136-0.129c0.228-0.062,0.449-0.134,0.661-0.214c0.214-0.081,0.396-0.196,0.546-0.345
				c0.119-0.14,0.241-0.312,0.368-0.516c0.125-0.203,0.214-0.528,0.266-0.975c0.013-0.111,0.025-0.241,0.038-0.393
				c0.012-0.149,0.026-0.334,0.044-0.554c0.02-0.222,0.04-0.489,0.063-0.804c0.023-0.315,0.046-0.707,0.066-1.175l0.218-4.755
				c0.033-0.549,0.058-1.011,0.072-1.385c0.015-0.373,0.023-0.691,0.025-0.955c0.002-0.263,0.005-0.486,0.009-0.673
				c0.003-0.186,0.003-0.371-0.001-0.555c-0.01-0.429-0.081-0.715-0.215-0.856c-0.134-0.141-0.262-0.24-0.387-0.3
				c-0.139-0.07-0.315-0.088-0.529-0.054c-0.215,0.035-0.443,0.086-0.687,0.151l-0.117-0.061l-0.077-0.396l0.045-0.035
				c0.106-0.029,0.281-0.076,0.525-0.143c0.245-0.065,0.496-0.134,0.756-0.204c0.259-0.07,0.51-0.138,0.754-0.204
				s0.42-0.113,0.526-0.143l0.8-0.216c0.123-0.033,0.294-0.08,0.515-0.14s0.4-0.115,0.537-0.168l0.116,0.037
				c0.02,0.195,0.082,0.445,0.189,0.747c0.105,0.304,0.235,0.642,0.39,1.017c0.153,0.375,0.319,0.773,0.498,1.195
				c0.179,0.424,0.355,0.841,0.534,1.254l1.647,3.835c0.275,0.665,0.526,1.226,0.751,1.682s0.425,0.86,0.602,1.214
				c0.045-0.089,0.167-0.418,0.369-0.99c0.203-0.571,0.451-1.279,0.747-2.122c0.296-0.844,0.608-1.765,0.94-2.765
				c0.331-0.999,0.647-1.976,0.947-2.928c0.302-0.952,0.559-1.827,0.771-2.626c0.212-0.798,0.344-1.419,0.396-1.864l0.112-0.123
				c0.122-0.024,0.252-0.054,0.389-0.088c0.138-0.033,0.268-0.066,0.39-0.1l0.823-0.223c0.106-0.029,0.282-0.076,0.526-0.143
				c0.243-0.065,0.494-0.134,0.755-0.204c0.258-0.069,0.51-0.138,0.754-0.204s0.42-0.113,0.526-0.143l0.046,0.012l-0.06,0.432
				l-0.111,0.123c-0.244,0.065-0.478,0.141-0.697,0.223c-0.221,0.083-0.392,0.195-0.511,0.335c-0.12,0.125-0.243,0.297-0.368,0.516
				c-0.126,0.22-0.185,0.536-0.175,0.95c0.005,0.215,0.013,0.413,0.024,0.594c0.012,0.184,0.023,0.396,0.038,0.639
				c0.013,0.243,0.034,0.538,0.064,0.885c0.03,0.346,0.075,0.789,0.133,1.328l0.367,4.156c0.059,0.54,0.103,0.979,0.134,1.317
				c0.029,0.34,0.059,0.621,0.087,0.845s0.056,0.412,0.081,0.566c0.026,0.155,0.057,0.321,0.092,0.496
				c0.071,0.413,0.169,0.688,0.294,0.823s0.251,0.241,0.375,0.314c0.14,0.07,0.32,0.087,0.541,0.051
				c0.223-0.037,0.455-0.089,0.699-0.154l0.117,0.061l0.077,0.396L86.675,84.385z"/>
			<path fill="#FFFFFF" d="M95.596,81.973c-0.107,0.028-0.283,0.076-0.527,0.143c-0.244,0.065-0.496,0.134-0.754,0.204
				c-0.26,0.069-0.512,0.138-0.754,0.204c-0.244,0.065-0.42,0.113-0.527,0.142L92.6,82.783c-0.107,0.029-0.283,0.076-0.527,0.142
				c-0.244,0.066-0.496,0.135-0.754,0.204c-0.26,0.07-0.512,0.139-0.754,0.205c-0.244,0.065-0.42,0.113-0.527,0.142l-0.047-0.011
				l0.06-0.433l0.111-0.123c0.184-0.05,0.396-0.119,0.641-0.207c0.242-0.09,0.432-0.198,0.568-0.327
				c0.119-0.125,0.23-0.302,0.332-0.529c0.104-0.229,0.172-0.549,0.209-0.96c-0.002-0.107-0.002-0.234,0.004-0.383
				c0.004-0.147,0.008-0.329,0.012-0.546c0.002-0.217,0-0.479-0.006-0.785c-0.008-0.307-0.016-0.691-0.025-1.15l-0.133-5.982
				c-0.006-0.307-0.014-0.654-0.023-1.047c-0.008-0.391-0.031-0.773-0.07-1.149c-0.039-0.39-0.119-0.662-0.236-0.815
				c-0.119-0.153-0.24-0.267-0.365-0.342c-0.139-0.039-0.279-0.059-0.426-0.058s-0.41,0.053-0.791,0.155l-0.116-0.061l-0.078-0.396
				l0.045-0.096c0.106-0.029,0.247-0.061,0.424-0.095c0.174-0.034,0.357-0.071,0.549-0.11c0.189-0.039,0.385-0.079,0.582-0.119
				c0.199-0.041,0.383-0.085,0.551-0.131l0.822-0.223c0.168-0.045,0.359-0.097,0.572-0.154c0.215-0.058,0.432-0.116,0.652-0.176
				c0.221-0.061,0.424-0.115,0.605-0.164c0.184-0.05,0.336-0.091,0.457-0.124c1.021-0.276,1.889-0.41,2.602-0.403
				c0.715,0.007,1.297,0.135,1.746,0.383c0.451,0.249,0.785,0.602,1.002,1.061s0.332,0.994,0.346,1.606
				c0.02,0.889-0.146,1.671-0.502,2.345c-0.352,0.673-0.811,1.253-1.375,1.736c-0.564,0.485-1.199,0.883-1.906,1.197
				c-0.705,0.315-1.395,0.562-2.066,0.744l-1.279,0.346c0.008,0.414,0.018,0.852,0.027,1.312c0.012,0.459,0.023,0.896,0.041,1.307
				c0.018,0.412,0.033,0.786,0.047,1.12c0.016,0.336,0.033,0.578,0.051,0.728c0.041,0.437,0.123,0.727,0.25,0.869
				c0.125,0.145,0.234,0.241,0.328,0.293c0.139,0.039,0.281,0.06,0.426,0.059c0.146-0.002,0.418-0.056,0.814-0.162l0.094,0.066
				l0.076,0.396L95.596,81.973z M95.543,74.376c1.281-0.347,2.189-0.885,2.725-1.616c0.537-0.73,0.793-1.61,0.771-2.638
				c-0.023-1.057-0.359-1.761-1.002-2.111c-0.645-0.35-1.516-0.377-2.613-0.08l-1.99,0.538c-0.021,0.453-0.031,0.835-0.033,1.144
				c0,0.309-0.006,0.579-0.016,0.813s-0.014,0.443-0.008,0.627c0.004,0.184,0.008,0.361,0.01,0.527l0.057,2.508
				c0.004,0.199,0.014,0.355,0.033,0.465c0.018,0.111,0.057,0.186,0.119,0.224c0.062,0.037,0.15,0.048,0.266,0.031
				c0.113-0.016,0.271-0.05,0.469-0.104L95.543,74.376z"/>
			<path fill="#FFFFFF" d="M105.918,65.995c-0.041-0.421-0.115-0.702-0.227-0.843c-0.109-0.139-0.229-0.245-0.352-0.32
				c-0.141-0.069-0.316-0.088-0.531-0.054c-0.213,0.036-0.441,0.086-0.686,0.151l-0.117-0.061l-0.078-0.395l0.047-0.036
				c0.105-0.028,0.281-0.076,0.525-0.142c0.244-0.066,0.494-0.135,0.754-0.204c0.26-0.07,0.512-0.139,0.756-0.204
				c0.242-0.066,0.418-0.113,0.525-0.143l0.436-0.117c0.105-0.029,0.281-0.077,0.525-0.143c0.242-0.066,0.494-0.134,0.754-0.204
				s0.512-0.139,0.756-0.204c0.242-0.066,0.418-0.113,0.525-0.143l0.045,0.012l-0.059,0.431l-0.088,0.116
				c-0.244,0.066-0.479,0.142-0.697,0.224c-0.221,0.083-0.398,0.197-0.533,0.342c-0.121,0.14-0.236,0.313-0.346,0.521
				c-0.111,0.208-0.178,0.522-0.197,0.944c-0.012,0.219-0.018,0.421-0.021,0.606c-0.004,0.188-0.002,0.403,0.002,0.648
				c0.006,0.245,0.012,0.544,0.02,0.896s0.02,0.805,0.031,1.356l0.092,4.23c0.012,0.537,0.021,0.981,0.029,1.335
				c0.008,0.353,0.018,0.658,0.033,0.916c0.014,0.26,0.029,0.5,0.049,0.726c0.021,0.227,0.041,0.483,0.064,0.77
				c0.02,0.288,0.184,0.391,0.488,0.308l1.945-0.525c0.914-0.248,1.604-0.453,2.068-0.617s0.797-0.336,1-0.515
				c0.203-0.178,0.324-0.4,0.365-0.665c0.041-0.266,0.109-0.619,0.207-1.062l0.066-0.11l0.596-0.161l-0.35,3.01l-0.178,0.278
				c-0.076,0.021-0.217,0.059-0.422,0.114c-0.207,0.056-0.443,0.12-0.709,0.192c-0.268,0.072-0.541,0.146-0.824,0.223
				c-0.281,0.076-0.523,0.141-0.721,0.194l-4.619,1.25c-0.107,0.028-0.283,0.076-0.525,0.142c-0.244,0.066-0.496,0.135-0.756,0.205
				s-0.51,0.138-0.754,0.203c-0.244,0.066-0.42,0.114-0.525,0.143l-0.047-0.011l0.059-0.433l0.113-0.123
				c0.244-0.065,0.471-0.139,0.686-0.22c0.211-0.081,0.385-0.193,0.521-0.339c0.119-0.139,0.23-0.323,0.332-0.553
				c0.104-0.227,0.172-0.531,0.211-0.912c0.012-0.111,0.021-0.24,0.025-0.389s0.004-0.328,0-0.543
				c-0.006-0.215-0.01-0.475-0.018-0.781c-0.006-0.307-0.016-0.689-0.025-1.15l-0.102-4.668c-0.014-0.537-0.023-0.988-0.031-1.357
				c-0.008-0.367-0.018-0.68-0.031-0.938s-0.025-0.479-0.037-0.661C105.951,66.355,105.936,66.174,105.918,65.995z"/>
			<path fill="#FFFFFF" d="M124.963,58.576l3.98,9.426c0.162,0.418,0.305,0.765,0.426,1.041c0.121,0.275,0.225,0.51,0.314,0.701
				c0.088,0.191,0.166,0.352,0.229,0.48c0.064,0.13,0.121,0.241,0.17,0.336c0.176,0.339,0.354,0.588,0.533,0.747
				s0.361,0.265,0.549,0.314c0.184,0.05,0.371,0.058,0.562,0.021c0.191-0.036,0.385-0.08,0.584-0.135l0.117,0.062l0.078,0.396
				l-0.045,0.104c-0.107,0.029-0.268,0.062-0.48,0.096c-0.215,0.035-0.436,0.084-0.664,0.146c-0.229,0.062-0.445,0.121-0.652,0.177
				c-0.205,0.056-0.363,0.098-0.469,0.127l-0.754,0.203c-0.107,0.029-0.283,0.077-0.527,0.143c-0.244,0.066-0.498,0.136-0.766,0.207
				c-0.268,0.072-0.521,0.142-0.766,0.208c-0.244,0.065-0.42,0.113-0.527,0.142l-0.045-0.011l0.059-0.433l0.09-0.116
				c0.443-0.12,0.783-0.263,1.025-0.428c0.242-0.166,0.359-0.472,0.35-0.916c-0.008-0.353-0.139-0.815-0.387-1.386
				c-0.252-0.573-0.562-1.295-0.934-2.167l-0.414-0.998l-5.123,1.386l-0.365,1.209c-0.328,1.062-0.605,1.941-0.826,2.643
				c-0.225,0.698-0.33,1.226-0.322,1.578c0.01,0.444,0.139,0.684,0.385,0.717c0.244,0.034,0.59-0.009,1.031-0.129l0.117,0.062
				l0.076,0.396l-0.045,0.035c-0.107,0.029-0.273,0.074-0.502,0.137c-0.23,0.062-0.469,0.127-0.721,0.194
				c-0.252,0.068-0.492,0.134-0.721,0.195s-0.396,0.107-0.504,0.136l-0.434,0.118c-0.107,0.028-0.268,0.071-0.48,0.13
				c-0.213,0.058-0.434,0.117-0.664,0.179c-0.229,0.062-0.445,0.132-0.65,0.211s-0.361,0.132-0.469,0.161l-0.023-0.086l0.037-0.427
				l0.111-0.122c0.197-0.054,0.389-0.113,0.57-0.178c0.184-0.064,0.365-0.172,0.547-0.321c0.18-0.149,0.355-0.351,0.527-0.604
				c0.17-0.255,0.344-0.599,0.518-1.031c0.043-0.089,0.084-0.189,0.119-0.299s0.094-0.275,0.172-0.498
				c0.08-0.221,0.182-0.514,0.305-0.879c0.121-0.364,0.279-0.84,0.475-1.425c0.193-0.584,0.432-1.3,0.711-2.147
				c0.281-0.846,0.623-1.871,1.025-3.076c0.188-0.59,0.381-1.179,0.584-1.764c0.201-0.587,0.387-1.135,0.561-1.645
				c0.172-0.51,0.328-0.96,0.465-1.353c0.137-0.392,0.234-0.681,0.293-0.866l1.332-1.053L124.963,58.576z M121.844,67.354
				l4.367-1.182l-2.303-5.322L121.844,67.354z"/>
			<path fill="#FFFFFF" d="M142.729,69.199c-0.107,0.029-0.275,0.074-0.504,0.137c-0.229,0.062-0.473,0.127-0.732,0.197
				c-0.258,0.07-0.502,0.137-0.73,0.198c-0.23,0.062-0.396,0.107-0.504,0.136l-1.303,0.353c-0.107,0.029-0.275,0.074-0.504,0.137
				c-0.229,0.062-0.469,0.126-0.721,0.194s-0.49,0.133-0.721,0.195c-0.229,0.062-0.396,0.107-0.502,0.136l-0.047-0.01l0.061-0.433
				l0.111-0.124c0.244-0.065,0.518-0.151,0.822-0.257s0.516-0.229,0.637-0.369c0.119-0.14,0.244-0.312,0.379-0.519
				s0.211-0.527,0.232-0.966c0.014-0.11,0.021-0.24,0.025-0.388s0.008-0.33,0.012-0.546c0.002-0.217,0.002-0.479-0.006-0.785
				c-0.006-0.307-0.016-0.69-0.025-1.15l-0.102-4.668c-0.023-0.997-0.051-1.879-0.084-2.648c-0.031-0.771-0.059-1.354-0.082-1.748
				l-0.252,0.068c-0.764,0.206-1.389,0.375-1.875,0.507c-0.488,0.132-0.881,0.25-1.178,0.354c-0.297,0.104-0.518,0.189-0.662,0.26
				s-0.246,0.137-0.307,0.2c-0.332,0.276-0.527,0.733-0.59,1.373l-0.09,0.117l-0.525,0.143l0.102-2.666l0.088-0.232l0.135-0.105
				c0.123,0.022,0.391-0.001,0.805-0.067c0.412-0.064,0.861-0.164,1.35-0.296s0.957-0.259,1.406-0.381
				c0.451-0.121,0.775-0.209,0.973-0.263l2.881-0.779c0.199-0.054,0.523-0.142,0.973-0.264c0.449-0.121,0.918-0.248,1.406-0.38
				s0.938-0.276,1.348-0.434c0.412-0.156,0.676-0.278,0.797-0.366l0.139,0.031l0.096,0.183l0.242,2.573l-0.549,0.148l-0.094-0.067
				c-0.09-0.599-0.305-0.944-0.645-1.039c-0.062-0.03-0.166-0.042-0.311-0.032c-0.146,0.008-0.367,0.041-0.666,0.098
				c-0.297,0.057-0.689,0.151-1.178,0.283c-0.488,0.133-1.105,0.3-1.854,0.502l-0.252,0.067c-0.004,0.45-0.004,1.034,0.006,1.758
				c0.008,0.723,0.023,1.604,0.047,2.646l0.092,4.231c0.014,0.552,0.023,1,0.031,1.346c0.006,0.345,0.018,0.631,0.029,0.859
				c0.012,0.227,0.025,0.42,0.035,0.58c0.012,0.157,0.027,0.327,0.047,0.507c0.039,0.421,0.129,0.697,0.27,0.829
				c0.143,0.132,0.275,0.234,0.398,0.309c0.125,0.075,0.34,0.083,0.645,0.022c0.305-0.059,0.582-0.122,0.824-0.188l0.117,0.062
				l0.078,0.396L142.729,69.199z"/>
			<path fill="#FFFFFF" d="M155.293,50.557c0.197-0.053,0.498-0.135,0.902-0.244s0.812-0.22,1.223-0.331
				c0.412-0.111,0.783-0.211,1.109-0.3c0.328-0.088,0.531-0.144,0.607-0.164l0.117,0.176l-0.035,2.528l-0.572,0.154l-0.094-0.068
				c-0.037-0.349-0.086-0.617-0.145-0.804c-0.057-0.188-0.213-0.295-0.467-0.32c-0.254-0.024-0.631,0.03-1.135,0.167
				c-0.504,0.136-1.213,0.327-2.127,0.575l-2.195,0.594l-0.025,0.898c-0.012,0.246-0.018,0.454-0.021,0.622
				c-0.004,0.169-0.008,0.375-0.01,0.619c-0.002,0.245,0.002,0.538,0.008,0.878c0.008,0.34,0.027,1.162,0.055,2.463
				c0.457-0.123,0.914-0.247,1.371-0.371c0.457-0.123,0.873-0.235,1.246-0.337c0.375-0.101,0.689-0.214,0.949-0.339
				c0.258-0.123,0.43-0.253,0.52-0.386c0.119-0.157,0.225-0.311,0.312-0.459c0.088-0.149,0.131-0.34,0.125-0.573l0.113-0.145
				l0.387-0.15l0.092,0.021c-0.023,0.361-0.043,0.674-0.059,0.94c-0.018,0.267-0.023,0.567-0.016,0.903
				c0.008,0.367,0.027,0.705,0.057,1.013c0.029,0.306,0.064,0.639,0.104,0.997l-0.092,0.071l-0.412,0.065l-0.094-0.045
				c-0.004-0.249-0.055-0.466-0.15-0.651c-0.096-0.185-0.209-0.331-0.334-0.438c-0.092-0.069-0.27-0.092-0.529-0.068
				c-0.26,0.022-0.572,0.084-0.939,0.183c-0.365,0.099-0.777,0.21-1.234,0.334s-0.922,0.25-1.395,0.378l0.049,2.221
				c0.012,0.551,0.021,0.998,0.029,1.342s0.016,0.647,0.031,0.912c0.014,0.266,0.029,0.507,0.051,0.724
				c0.02,0.218,0.047,0.468,0.084,0.749c0.008,0.291,0.162,0.396,0.469,0.313l1.943-0.525c0.914-0.248,1.635-0.462,2.16-0.643
				s0.922-0.369,1.193-0.566c0.273-0.196,0.463-0.438,0.572-0.722s0.211-0.646,0.311-1.089l0.088-0.116l0.596-0.161l-0.348,3.01
				l-0.178,0.278c-0.076,0.021-0.252,0.068-0.527,0.143c-0.273,0.074-0.582,0.157-0.926,0.25s-0.688,0.186-1.029,0.278
				s-0.613,0.166-0.812,0.22l-4.619,1.25c-0.107,0.029-0.283,0.076-0.525,0.142c-0.244,0.066-0.496,0.135-0.756,0.204
				c-0.258,0.07-0.51,0.139-0.754,0.204c-0.244,0.066-0.42,0.114-0.525,0.143l-0.047-0.011l0.059-0.433l0.113-0.123
				c0.244-0.065,0.471-0.14,0.686-0.22c0.213-0.081,0.387-0.193,0.521-0.338c0.119-0.14,0.234-0.311,0.346-0.51
				c0.109-0.199,0.176-0.518,0.197-0.956c-0.002-0.107-0.002-0.234,0.004-0.383c0.004-0.147,0.008-0.329,0.01-0.546
				s0.002-0.479-0.006-0.785c-0.006-0.307-0.016-0.689-0.025-1.148l-0.102-4.67c-0.014-0.535-0.023-0.988-0.031-1.355
				s-0.014-0.682-0.02-0.943c-0.006-0.26-0.016-0.48-0.027-0.664c-0.01-0.182-0.027-0.362-0.045-0.542
				c-0.041-0.405-0.119-0.681-0.238-0.827c-0.117-0.145-0.238-0.254-0.363-0.328c-0.141-0.07-0.316-0.089-0.531-0.055
				c-0.213,0.035-0.441,0.086-0.686,0.151l-0.117-0.061l-0.078-0.395l0.047-0.036c0.105-0.029,0.281-0.076,0.525-0.143
				c0.244-0.065,0.506-0.137,0.789-0.213c0.281-0.076,0.557-0.15,0.824-0.223c0.266-0.072,0.482-0.131,0.65-0.176L155.293,50.557z"
				/>
		</g>
	</g>
	<polygon fill="#383433" points="15.611,71.908 162.479,31.91 145.113,0 0.562,39.998 	"/>
	<polygon fill="#383433" points="159.447,94.457 140.412,107.861 147.854,81.939 180,73.049 172.729,107.074 	"/>
	<g>
		<g>
			<path fill="#FFFFFF" d="M34.222,57.128l-3.458-8.231c-0.163-0.378-0.299-0.693-0.41-0.945c-0.109-0.252-0.206-0.465-0.287-0.641
				c-0.08-0.175-0.149-0.317-0.208-0.429s-0.11-0.217-0.154-0.318c-0.161-0.308-0.324-0.535-0.488-0.681
				c-0.163-0.146-0.33-0.241-0.5-0.287c-0.169-0.046-0.34-0.053-0.515-0.019c-0.175,0.033-0.353,0.074-0.533,0.123l-0.105-0.056
				l-0.061-0.808l0.02-0.069c0.099-0.013,0.241-0.037,0.43-0.074c0.188-0.036,0.386-0.083,0.596-0.14
				c0.208-0.057,0.41-0.111,0.604-0.164c0.195-0.053,0.342-0.092,0.438-0.118l1.546-0.418c0.098-0.026,0.258-0.069,0.48-0.13
				s0.455-0.123,0.699-0.189c0.243-0.065,0.477-0.129,0.699-0.189c0.223-0.06,0.383-0.104,0.481-0.13l0.041-0.011l-0.045,0.834
				l-0.103,0.114c-0.404,0.109-0.716,0.239-0.937,0.39c-0.221,0.152-0.327,0.431-0.318,0.837c0.008,0.322,0.126,0.744,0.354,1.267
				c0.229,0.521,0.512,1.181,0.853,1.977l1.349,3.099c0.249,0.495,0.455,0.978,0.62,1.448c0.164,0.469,0.327,0.852,0.487,1.146
				c0.104-0.353,0.249-0.804,0.433-1.354c0.184-0.549,0.381-1.156,0.59-1.817l1.197-3.788c0.302-0.969,0.553-1.772,0.756-2.411
				c0.203-0.64,0.301-1.119,0.294-1.441c-0.009-0.406-0.125-0.624-0.35-0.656c-0.225-0.03-0.539,0.01-0.943,0.118l-0.106-0.055
				l-0.06-0.809l0.04-0.074c0.1,0.015,0.252-0.005,0.462-0.062c0.208-0.057,0.424-0.114,0.646-0.175s0.439-0.119,0.647-0.176
				c0.209-0.057,0.362-0.098,0.459-0.124l1.232-0.333c0.097-0.026,0.24-0.064,0.428-0.115c0.188-0.052,0.387-0.105,0.596-0.162
				c0.209-0.056,0.41-0.121,0.604-0.194c0.194-0.074,0.341-0.125,0.438-0.151l0.043,0.053l-0.044,0.834l-0.103,0.114
				c-0.182,0.049-0.354,0.103-0.522,0.162c-0.166,0.059-0.328,0.155-0.486,0.29s-0.315,0.318-0.472,0.55
				c-0.155,0.232-0.313,0.546-0.473,0.94c-0.026,0.078-0.056,0.157-0.09,0.236c-0.033,0.079-0.079,0.201-0.139,0.365
				c-0.059,0.164-0.142,0.395-0.247,0.689c-0.105,0.296-0.244,0.696-0.414,1.199c-0.172,0.505-0.385,1.137-0.642,1.896
				c-0.257,0.76-0.562,1.68-0.916,2.761c-0.185,0.543-0.375,1.104-0.571,1.686c-0.198,0.582-0.383,1.133-0.552,1.648
				c-0.171,0.518-0.322,0.979-0.454,1.379c-0.131,0.402-0.223,0.688-0.275,0.857l-2.333,0.863L34.222,57.128z"/>
			<path fill="#FFFFFF" d="M51.787,38.268c0.195-0.053,0.484-0.131,0.868-0.235c0.382-0.104,0.775-0.209,1.179-0.318
				s0.766-0.207,1.086-0.294c0.319-0.087,0.515-0.14,0.585-0.158l0.129,0.155l-0.045,2.736l-0.939,0.255l-0.085-0.062
				c-0.034-0.263-0.076-0.467-0.129-0.61s-0.184-0.223-0.395-0.238c-0.21-0.015-0.535,0.037-0.974,0.156
				c-0.438,0.118-1.047,0.283-1.827,0.494l-1.189,0.321l-0.017,0.193c-0.009,0.198-0.017,0.381-0.02,0.549
				c-0.003,0.167-0.007,0.364-0.009,0.587c-0.002,0.225,0.001,0.496,0.008,0.812c0.007,0.32,0.017,0.729,0.027,1.227l0.016,0.707
				c0.334-0.091,0.654-0.178,0.961-0.261c0.306-0.083,0.591-0.159,0.855-0.231c0.264-0.071,0.49-0.15,0.678-0.237
				c0.187-0.086,0.321-0.184,0.403-0.292c0.135-0.182,0.2-0.401,0.194-0.66l0.103-0.154l0.772-0.209l0.084-0.002
				c-0.021,0.33-0.039,0.616-0.055,0.86c-0.016,0.243-0.02,0.519-0.013,0.827c0.007,0.336,0.024,0.645,0.052,0.927
				c0.026,0.28,0.059,0.585,0.093,0.913l-0.082,0.043l-0.794,0.215l-0.086-0.06c-0.008-0.357-0.075-0.605-0.205-0.742
				c-0.114-0.128-0.433-0.121-0.955,0.021c-0.522,0.141-1.104,0.299-1.743,0.472l-0.23,0.062l0.037,1.693
				c0.009,0.398,0.02,0.729,0.032,0.986c0.013,0.261,0.025,0.482,0.036,0.666s0.026,0.356,0.043,0.518
				c0.018,0.161,0.036,0.351,0.055,0.566c0.02,0.258,0.161,0.351,0.427,0.279l0.938-0.254c0.794-0.215,1.417-0.384,1.869-0.506
				c0.453-0.123,0.795-0.27,1.029-0.441c0.235-0.173,0.402-0.372,0.502-0.602c0.101-0.23,0.188-0.529,0.265-0.897l0.081-0.108
				l0.981-0.266l-0.329,3.174l-0.162,0.254c-0.07,0.019-0.241,0.064-0.513,0.139c-0.271,0.073-0.573,0.155-0.908,0.246
				c-0.334,0.09-0.668,0.18-1.002,0.271s-0.599,0.162-0.793,0.214l-4.219,1.142c-0.097,0.026-0.257,0.069-0.479,0.13
				c-0.224,0.061-0.453,0.122-0.689,0.187c-0.237,0.064-0.467,0.126-0.688,0.187c-0.224,0.061-0.384,0.104-0.481,0.13l-0.042-0.011
				l0.045-0.814l0.104-0.112c0.222-0.06,0.431-0.128,0.626-0.2c0.193-0.074,0.353-0.178,0.476-0.309
				c0.109-0.128,0.215-0.283,0.315-0.466s0.161-0.473,0.181-0.872c-0.002-0.098-0.002-0.214,0.003-0.35
				c0.004-0.135,0.007-0.301,0.01-0.499c0.002-0.198,0.001-0.437-0.006-0.716c-0.006-0.281-0.014-0.631-0.022-1.051l-0.075-3.422
				c-0.011-0.49-0.021-0.902-0.027-1.238c-0.008-0.336-0.014-0.623-0.02-0.861c-0.005-0.238-0.014-0.439-0.023-0.606
				c-0.011-0.166-0.025-0.331-0.042-0.495c-0.037-0.37-0.108-0.625-0.217-0.765s-0.219-0.236-0.332-0.29
				c-0.128-0.079-0.29-0.099-0.484-0.061c-0.195,0.039-0.404,0.09-0.627,0.149l-0.106-0.056l-0.08-0.781l0.041-0.032
				c0.098-0.026,0.258-0.069,0.481-0.13c0.222-0.061,0.463-0.125,0.72-0.195c0.258-0.069,0.508-0.137,0.751-0.203
				c0.244-0.066,0.442-0.119,0.596-0.161L51.787,38.268z"/>
			<path fill="#FFFFFF" d="M61.714,37.905c-0.036-0.342-0.104-0.591-0.205-0.747c-0.102-0.155-0.216-0.258-0.344-0.308
				c-0.128-0.079-0.257-0.107-0.391-0.085c-0.132,0.021-0.373,0.08-0.721,0.174l-0.106-0.056l-0.079-0.781l0.039-0.096
				c0.098-0.026,0.237-0.05,0.419-0.071c0.182-0.021,0.377-0.06,0.586-0.116s0.414-0.111,0.616-0.166
				c0.201-0.055,0.379-0.104,0.532-0.145l2.024-0.548c0.168-0.045,0.38-0.103,0.638-0.172c0.258-0.07,0.519-0.141,0.783-0.212
				c0.264-0.072,0.519-0.141,0.762-0.206c0.243-0.066,0.449-0.122,0.616-0.167c1.086-0.294,2.061-0.371,2.926-0.231
				c0.863,0.139,1.595,0.444,2.193,0.915s1.064,1.082,1.396,1.836s0.507,1.599,0.528,2.535c0.02,0.922-0.11,1.84-0.392,2.753
				c-0.281,0.912-0.706,1.766-1.277,2.559c-0.57,0.794-1.29,1.499-2.158,2.113c-0.869,0.614-1.882,1.079-3.036,1.392
				c-0.112,0.03-0.282,0.076-0.513,0.139c-0.229,0.062-0.473,0.127-0.73,0.197c-0.258,0.069-0.509,0.138-0.752,0.203
				c-0.243,0.066-0.435,0.117-0.574,0.155l-1.941,0.525c-0.098,0.026-0.258,0.069-0.48,0.13c-0.224,0.061-0.452,0.122-0.688,0.187
				c-0.238,0.064-0.467,0.126-0.689,0.187c-0.224,0.061-0.384,0.104-0.48,0.13l-0.042-0.011l0.044-0.814l0.104-0.112
				c0.167-0.045,0.361-0.108,0.583-0.189c0.223-0.081,0.396-0.182,0.52-0.299c0.109-0.114,0.211-0.275,0.304-0.483
				c0.095-0.208,0.158-0.5,0.191-0.875c-0.002-0.098-0.002-0.214,0.003-0.35c0.004-0.135,0.008-0.301,0.01-0.499
				c0.003-0.198,0.001-0.437-0.005-0.716c-0.006-0.281-0.014-0.631-0.023-1.051l-0.075-3.422c-0.003-0.141-0.008-0.354-0.014-0.641
				c-0.007-0.287-0.014-0.592-0.021-0.914c-0.007-0.32-0.018-0.635-0.031-0.941C61.748,38.305,61.731,38.069,61.714,37.905z
				 M66.337,46.56c0.835-0.226,1.569-0.562,2.204-1.008c0.634-0.445,1.165-0.966,1.593-1.561c0.428-0.594,0.75-1.241,0.967-1.941
				c0.215-0.698,0.314-1.411,0.299-2.139c-0.017-0.756-0.15-1.42-0.401-1.994c-0.251-0.572-0.607-1.029-1.069-1.367
				c-0.463-0.34-1.024-0.551-1.684-0.633c-0.66-0.082-1.408-0.01-2.243,0.217l-1.838,0.496c-0.019,0.414-0.028,0.758-0.03,1.033
				c0,0.274-0.005,0.554-0.013,0.838c-0.008,0.283-0.008,0.59,0,0.918c0.007,0.328,0.016,0.746,0.027,1.25l0.057,2.602
				c0.019,0.842,0.036,1.494,0.054,1.961c0.018,0.469,0.043,0.816,0.075,1.047c0.051,0.354,0.146,0.555,0.286,0.608
				c0.143,0.053,0.395,0.031,0.756-0.067L66.337,46.56z"/>
			<path fill="#FFFFFF" d="M84.525,29.243l3.801,8.561c0.134,0.315,0.251,0.579,0.354,0.791s0.188,0.393,0.254,0.543
				c0.066,0.151,0.125,0.273,0.176,0.365s0.099,0.174,0.142,0.247c0.175,0.304,0.352,0.526,0.53,0.669
				c0.177,0.143,0.354,0.235,0.532,0.278c0.176,0.044,0.354,0.049,0.535,0.014c0.18-0.034,0.361-0.076,0.543-0.125l0.105,0.056
				l0.082,0.78l-0.041,0.096c-0.098,0.026-0.244,0.055-0.439,0.087c-0.195,0.031-0.396,0.076-0.605,0.133s-0.408,0.11-0.595,0.161
				c-0.188,0.051-0.331,0.089-0.429,0.116l-1.524,0.412c-0.097,0.026-0.257,0.069-0.479,0.13c-0.223,0.06-0.456,0.123-0.699,0.188
				c-0.244,0.066-0.478,0.129-0.7,0.189s-0.383,0.104-0.48,0.131l-0.042-0.011l0.046-0.815l0.081-0.105
				c0.362-0.099,0.637-0.219,0.821-0.36c0.187-0.142,0.274-0.415,0.266-0.821c-0.005-0.224-0.051-0.531-0.136-0.924
				c-0.086-0.392-0.274-0.858-0.565-1.399l-0.462-0.889l-3.653,0.988l-0.396,1.12c-0.237,0.685-0.413,1.26-0.529,1.727
				c-0.115,0.469-0.171,0.793-0.167,0.975c0.007,0.336,0.081,0.549,0.224,0.637s0.394,0.084,0.756-0.014l0.105,0.056l0.081,0.78
				l-0.042,0.033c-0.098,0.026-0.25,0.067-0.459,0.124s-0.428,0.116-0.658,0.179c-0.229,0.062-0.448,0.121-0.657,0.178
				s-0.362,0.098-0.46,0.124l-1.232,0.333c-0.097,0.026-0.243,0.066-0.438,0.119c-0.195,0.053-0.397,0.107-0.605,0.163
				c-0.209,0.057-0.407,0.12-0.594,0.192c-0.188,0.071-0.331,0.121-0.428,0.146l-0.023-0.078l0.024-0.809l0.103-0.112
				c0.182-0.049,0.361-0.111,0.542-0.188c0.18-0.078,0.36-0.189,0.538-0.337c0.18-0.146,0.354-0.331,0.524-0.553
				c0.17-0.222,0.343-0.498,0.518-0.826c0.039-0.095,0.1-0.241,0.179-0.439c0.08-0.197,0.205-0.544,0.376-1.042
				c0.172-0.496,0.408-1.2,0.711-2.114c0.301-0.911,0.701-2.125,1.201-3.641l1.693-5.125l1.468-1.031L84.525,29.243z M82.261,37.1
				l2.735-0.739l-1.418-3.354L82.261,37.1z"/>
			<path fill="#FFFFFF" d="M108.875,22.829l-0.023,0.815l-0.104,0.111c-0.207,0.057-0.414,0.123-0.615,0.198
				c-0.201,0.076-0.363,0.18-0.486,0.311c-0.109,0.129-0.221,0.285-0.336,0.472c-0.115,0.186-0.189,0.48-0.223,0.884
				c-0.01,0.199-0.016,0.384-0.02,0.554s-0.006,0.368-0.008,0.594c-0.002,0.225,0.002,0.498,0.008,0.82
				c0.008,0.321,0.018,0.734,0.027,1.238l0.072,3.273c0.018,0.783,0.035,1.426,0.053,1.928s0.035,0.931,0.049,1.284
				c0.016,0.355,0.037,0.669,0.062,0.943c0.027,0.275,0.059,0.576,0.094,0.904l-0.166,0.105l-2.568,0.694l-0.215-0.212l-6.668-8.085
				c0.033,0.245,0.061,0.642,0.078,1.193c0.02,0.552,0.037,1.19,0.053,1.919l0.035,1.553c0.004,0.168,0.008,0.389,0.014,0.661
				c0.006,0.273,0.018,0.556,0.029,0.848c0.014,0.292,0.027,0.574,0.041,0.845c0.012,0.271,0.027,0.489,0.045,0.653
				c0.035,0.342,0.119,0.587,0.246,0.735c0.131,0.147,0.266,0.244,0.406,0.291c0.113,0.082,0.262,0.106,0.443,0.07
				c0.182-0.035,0.412-0.09,0.689-0.165l0.105,0.056l0.082,0.781l-0.043,0.032c-0.111,0.03-0.268,0.072-0.469,0.127
				c-0.203,0.055-0.412,0.111-0.627,0.17c-0.217,0.058-0.424,0.114-0.627,0.169c-0.201,0.055-0.352,0.096-0.447,0.121l-1.232,0.334
				c-0.098,0.026-0.26,0.069-0.48,0.13c-0.223,0.06-0.453,0.122-0.689,0.187c-0.236,0.063-0.467,0.126-0.689,0.186
				c-0.223,0.061-0.383,0.104-0.48,0.131l-0.041-0.01l0.045-0.815l0.102-0.112c0.252-0.068,0.463-0.135,0.637-0.204
				c0.174-0.067,0.328-0.169,0.467-0.305c0.096-0.097,0.211-0.244,0.346-0.442c0.137-0.198,0.221-0.507,0.254-0.922
				c0.012-0.103,0.02-0.22,0.023-0.355c0.004-0.135,0.004-0.3,0-0.496c-0.004-0.195-0.01-0.434-0.016-0.713
				c-0.006-0.28-0.014-0.63-0.023-1.05l-0.074-3.419c-0.012-0.489-0.021-0.902-0.027-1.238c-0.008-0.335-0.014-0.622-0.02-0.859
				s-0.014-0.439-0.023-0.605c-0.012-0.166-0.025-0.33-0.043-0.494c-0.035-0.287-0.119-0.518-0.258-0.691
				c-0.137-0.174-0.268-0.285-0.395-0.337c-0.129-0.077-0.285-0.098-0.475-0.062c-0.189,0.037-0.4,0.088-0.637,0.152l-0.107-0.057
				l-0.08-0.786l0.041-0.089c0.096-0.025,0.24-0.059,0.428-0.097c0.188-0.037,0.379-0.076,0.574-0.116
				c0.197-0.04,0.387-0.079,0.576-0.117c0.188-0.039,0.33-0.07,0.428-0.097l1.775-0.479c0.111-0.03,0.25-0.075,0.418-0.133
				c0.166-0.057,0.312-0.116,0.436-0.176l0.107,0.035c0.045,0.186,0.156,0.428,0.33,0.727c0.176,0.298,0.389,0.63,0.643,0.991
				c0.252,0.363,0.523,0.741,0.812,1.136s0.576,0.786,0.865,1.174c0.52,0.707,0.982,1.32,1.385,1.84s0.764,0.968,1.08,1.348
				c0.316,0.382,0.59,0.699,0.818,0.955c0.23,0.256,0.424,0.468,0.582,0.638c-0.008-0.366-0.012-0.726-0.014-1.081
				c0-0.353-0.004-0.713-0.012-1.078l-0.064-2.871c-0.01-0.492-0.02-0.906-0.027-1.244c-0.006-0.338-0.018-0.625-0.029-0.861
				c-0.012-0.238-0.023-0.439-0.035-0.607c-0.01-0.167-0.023-0.333-0.041-0.498c-0.035-0.231-0.098-0.438-0.193-0.617
				c-0.094-0.18-0.24-0.319-0.439-0.422c-0.127-0.078-0.293-0.091-0.494-0.036s-0.414,0.112-0.637,0.172l-0.086-0.063l-0.08-0.805
				l0.039-0.089c0.098-0.026,0.238-0.058,0.418-0.095c0.182-0.035,0.367-0.072,0.555-0.11s0.373-0.075,0.555-0.111
				s0.32-0.067,0.418-0.094l1.816-0.491c0.098-0.026,0.236-0.064,0.418-0.113s0.367-0.107,0.562-0.176
				c0.195-0.067,0.383-0.134,0.562-0.198c0.182-0.064,0.32-0.118,0.418-0.159L108.875,22.829z"/>
			<path fill="#FFFFFF" d="M119.457,19.793l3.803,8.561c0.133,0.315,0.25,0.58,0.354,0.792c0.102,0.212,0.188,0.393,0.252,0.543
				c0.068,0.151,0.125,0.273,0.176,0.365c0.053,0.092,0.1,0.174,0.143,0.246c0.176,0.305,0.352,0.527,0.529,0.67
				s0.355,0.234,0.533,0.278c0.174,0.044,0.354,0.049,0.535,0.013c0.18-0.033,0.361-0.076,0.543-0.125l0.105,0.056l0.08,0.781
				l-0.039,0.095c-0.098,0.027-0.244,0.056-0.439,0.088c-0.195,0.031-0.398,0.076-0.605,0.133c-0.209,0.057-0.408,0.109-0.596,0.16
				c-0.188,0.052-0.33,0.09-0.428,0.116l-1.525,0.413c-0.098,0.025-0.258,0.069-0.48,0.129c-0.223,0.061-0.455,0.124-0.699,0.189
				c-0.244,0.066-0.477,0.129-0.699,0.189s-0.383,0.104-0.48,0.13l-0.041-0.011l0.045-0.814l0.082-0.106
				c0.361-0.098,0.635-0.218,0.82-0.36c0.188-0.141,0.275-0.414,0.266-0.82c-0.004-0.225-0.051-0.532-0.135-0.924
				c-0.086-0.393-0.275-0.858-0.566-1.399l-0.461-0.89l-3.654,0.988l-0.396,1.121c-0.236,0.684-0.412,1.26-0.529,1.727
				c-0.115,0.469-0.17,0.793-0.166,0.975c0.008,0.336,0.08,0.548,0.223,0.637c0.143,0.088,0.395,0.084,0.758-0.015l0.105,0.056
				l0.08,0.781l-0.043,0.033c-0.096,0.025-0.248,0.067-0.459,0.124c-0.207,0.056-0.428,0.116-0.656,0.178
				c-0.23,0.062-0.449,0.122-0.658,0.178c-0.209,0.057-0.363,0.099-0.459,0.124l-1.232,0.334c-0.098,0.026-0.244,0.065-0.439,0.118
				s-0.396,0.107-0.605,0.164s-0.406,0.12-0.594,0.192c-0.188,0.071-0.33,0.12-0.426,0.146l-0.025-0.078l0.025-0.809l0.102-0.112
				c0.184-0.05,0.363-0.112,0.543-0.189s0.359-0.188,0.539-0.336c0.178-0.146,0.354-0.331,0.523-0.554
				c0.17-0.222,0.342-0.497,0.518-0.825c0.039-0.096,0.1-0.241,0.178-0.439c0.082-0.197,0.207-0.545,0.377-1.042
				c0.172-0.496,0.408-1.201,0.711-2.115c0.301-0.91,0.701-2.125,1.201-3.64l1.693-5.126l1.469-1.03L119.457,19.793z M117.195,27.65
				l2.734-0.739l-1.418-3.355L117.195,27.65z"/>
		</g>
	</g>
</g>
</svg>
