<?xml version="1.0" encoding="utf-8"?>
<!-- Generator: Adobe Illustrator 16.0.0, SVG Export Plug-In . SVG Version: 6.00 Build 0)  -->
<!DOCTYPE svg PUBLIC "-//W3C//DTD SVG 1.1//EN" "http://www.w3.org/Graphics/SVG/1.1/DTD/svg11.dtd">
<svg version="1.1" id="Layer_1" xmlns="http://www.w3.org/2000/svg" xmlns:xlink="http://www.w3.org/1999/xlink" x="0px" y="0px"
	 width="212.776px" height="90px" viewBox="0 0 212.776 90" style="enable-background:new 0 0 212.776 90;" xml:space="preserve">
<style type="text/css">
<![CDATA[
	.st0{opacity:0.2;fill:#1A1A1A;}
	.st1{fill:#18AEDF;}
]]>
</style>
<g>
	<path class="st1" d="M43.94,8.212c-13.775,0-25.69,7.622-32.085,18.778C4.28,40.203,14.861,44.14,22.87,42.743
		c1.509-0.263,5.321-1.289,7.658-4.756c2.337-3.465,7.738-7.658,10.802-11.849c3.062-4.192,3.627-6.852,3.627-8.867
		c0-2.015,3.144-1.209,4.353,1.532c1.21,2.741,0.646,7.335-1.451,9.834c-2.096,2.499-3.546,5.643-1.53,6.207
		c2.015,0.564,5.158,1.128,7.174,1.289c2.015,0.161,4.917,0.564,5.4,3.467c0.483,2.902,0.08,4.433-1.209,5.159
		c1.532,0.726,2.579,4.917-0.081,6.852c1.692,1.611,0.484,5.643-2.74,6.609c0.726,2.257,0.241,5.079-3.466,5.643
		c-3.709,0.564-12.379,1.062-17.734-0.322c-14.135-3.651-15.611,9.145-6.956,13.975c5.08,2.836,11,4.274,17.225,4.274
		c20.316,0,36.788-16.472,36.788-36.789C80.729,24.683,64.257,8.212,43.94,8.212z"/>
	<path class="st0" d="M49.31,18.802c1.21,2.741,0.646,7.335-1.451,9.834c-2.096,2.499-3.546,5.643-1.53,6.207
		c2.015,0.564,5.158,1.128,7.174,1.289c2.015,0.161,4.917,0.564,5.4,3.467c0.483,2.902,0.08,4.433-1.209,5.159
		c1.532,0.726,2.579,4.917-0.081,6.852c1.692,1.611,0.484,5.643-2.74,6.609c0.726,2.257,0.241,5.079-3.466,5.643
		c-3.709,0.564-12.379,1.062-17.734-0.322c-14.135-3.651-15.611,9.145-6.956,13.975c5.08,2.836,11,4.274,17.225,4.274
		c18.657,0,34.069-13.891,36.463-31.894L49.31,18.802z"/>
</g>
<g>
	<path class="st1" d="M103.488,48.635c0,1.271-0.457,2.273-1.372,3.006c-0.915,0.731-2.188,1.098-3.819,1.098
		c-1.502,0-2.83-0.282-3.986-0.849v-2.772c0.95,0.423,1.754,0.722,2.413,0.895c0.657,0.174,1.259,0.261,1.805,0.261
		c0.655,0,1.157-0.126,1.508-0.376c0.35-0.25,0.524-0.623,0.524-1.117c0-0.276-0.077-0.521-0.231-0.736s-0.38-0.422-0.679-0.621
		c-0.298-0.199-0.906-0.518-1.825-0.953c-0.86-0.405-1.505-0.793-1.936-1.166c-0.43-0.372-0.774-0.806-1.03-1.3
		c-0.257-0.494-0.386-1.072-0.386-1.734c0-1.246,0.423-2.224,1.267-2.937c0.844-0.713,2.012-1.069,3.501-1.069
		c0.731,0,1.43,0.086,2.095,0.26c0.664,0.173,1.36,0.417,2.085,0.732l-0.963,2.321c-0.751-0.308-1.373-0.523-1.864-0.645
		c-0.49-0.122-0.975-0.184-1.449-0.184c-0.564,0-0.997,0.132-1.3,0.395c-0.303,0.263-0.452,0.606-0.452,1.03
		c0,0.264,0.061,0.494,0.184,0.689c0.121,0.196,0.315,0.385,0.582,0.568c0.266,0.183,0.896,0.512,1.893,0.987
		c1.315,0.629,2.218,1.259,2.706,1.892C103.243,46.941,103.488,47.716,103.488,48.635z"/>
	<path class="st1" d="M117.502,38.465v9.111c0,1.039-0.234,1.951-0.698,2.734c-0.466,0.783-1.139,1.384-2.018,1.802
		c-0.88,0.417-1.921,0.626-3.12,0.626c-1.812,0-3.217-0.464-4.22-1.393c-1.001-0.928-1.502-2.196-1.502-3.809v-9.072h2.977v8.62
		c0,1.084,0.218,1.882,0.654,2.388c0.437,0.508,1.158,0.761,2.168,0.761c0.975,0,1.683-0.255,2.123-0.766
		c0.439-0.511,0.659-1.312,0.659-2.402v-8.601H117.502z"/>
	<path class="st1" d="M130.678,42.856c0,1.515-0.475,2.674-1.422,3.477c-0.946,0.803-2.293,1.204-4.04,1.204h-1.28v5.009h-2.987
		V38.465h4.498c1.709,0,3.007,0.367,3.896,1.103C130.232,40.303,130.678,41.399,130.678,42.856z M123.936,45.091h0.982
		c0.917,0,1.605-0.181,2.061-0.544s0.684-0.891,0.684-1.585c0-0.699-0.19-1.216-0.573-1.55c-0.382-0.333-0.979-0.5-1.797-0.5h-1.356
		V45.091z"/>
	<path class="st1" d="M141.443,52.546h-8.109V38.465h8.109v2.446h-5.124v3.091h4.768v2.446h-4.768v3.632h5.124V52.546z"/>
	<path class="st1" d="M147.368,47.143v5.403h-2.987V38.465h4.104c1.913,0,3.329,0.348,4.248,1.044
		c0.917,0.697,1.376,1.755,1.376,3.174c0,0.828-0.228,1.565-0.685,2.21c-0.455,0.645-1.101,1.151-1.936,1.517
		c2.119,3.166,3.5,5.211,4.142,6.136h-3.312l-3.362-5.403H147.368z M147.368,44.715h0.962c0.943,0,1.641-0.157,2.09-0.472
		c0.45-0.314,0.674-0.809,0.674-1.483c0-0.668-0.229-1.143-0.688-1.425s-1.17-0.424-2.134-0.424h-0.903V44.715z"/>
	<path class="st1" d="M163.815,52.546l-5.248-13.002h-0.077c0.052,0.796,0.077,1.612,0.077,2.446v10.556h-0.944V38.465h1.521
		l4.989,12.386h0.058l4.989-12.386h1.482v14.081h-0.991V41.874c0-0.745,0.039-1.515,0.116-2.312h-0.077l-5.269,12.983H163.815z"/>
	<path class="st1" d="M174.642,52.546V38.465h0.982v14.081H174.642z"/>
	<path class="st1" d="M189.849,52.546h-0.991l-8.341-12.501h-0.077c0.077,1.489,0.116,2.613,0.116,3.37v9.131h-0.944V38.465h0.982
		l8.331,12.482h0.057c-0.057-1.156-0.086-2.255-0.086-3.294v-9.188h0.953V52.546z"/>
	<path class="st1" d="M197.506,52.546h-0.992V39.389h-4.574v-0.924h10.141v0.924h-4.574V52.546z"/>
</g>
</svg>
