<?xml version="1.0" encoding="utf-8"?>
<!-- Generator: Adobe Illustrator 16.0.0, SVG Export Plug-In . SVG Version: 6.00 Build 0)  -->
<!DOCTYPE svg PUBLIC "-//W3C//DTD SVG 1.1//EN" "http://www.w3.org/Graphics/SVG/1.1/DTD/svg11.dtd">
<svg version="1.1" id="Layer_1" xmlns="http://www.w3.org/2000/svg" xmlns:xlink="http://www.w3.org/1999/xlink" x="0px" y="0px"
	 width="200px" height="175px" viewBox="0 0 200 175" enable-background="new 0 0 200 175" xml:space="preserve">
<path fill="#414042" d="M180.5,0h-160C9.5,0,0,8.5,0,19.5v5v105V175h200v-45.5v-105v-5C200,8.5,191.5,0,180.5,0z M78.739,10.391
	c4.322,0,7.826,3.504,7.826,7.826c0,4.322-3.503,7.826-7.826,7.826c-4.322,0-7.826-3.504-7.826-7.826S74.417,10.391,78.739,10.391z
	 M51.239,10.391c4.322,0,7.826,3.504,7.826,7.826s-3.504,7.826-7.826,7.826s-7.826-3.504-7.826-7.826S46.917,10.391,51.239,10.391z
	 M23.739,10.391c4.322,0,7.826,3.504,7.826,7.826s-3.504,7.826-7.826,7.826s-7.826-3.504-7.826-7.826S19.417,10.391,23.739,10.391z
	 M195,170H5V44h190V170z"/>
<rect x="127" y="64" fill="#E6E7E8" width="48" height="90"/>
<rect x="25" y="64" fill="#E6E7E8" width="91" height="90"/>
<rect x="25" y="64" fill="#E6E7E8" width="91" height="90"/>
<text transform="matrix(1 0 0 1 143.1328 123.7285)" fill="#D1D3D4" font-family="'FontAwesome'" font-size="39.3788"></text>
</svg>
